<?xml version="1.0" encoding="utf-8"?>
<!-- Generator: Adobe Illustrator 14.0.0, SVG Export Plug-In . SVG Version: 6.00 Build 43363)  -->
<!DOCTYPE svg PUBLIC "-//W3C//DTD SVG 1.1//EN" "http://www.w3.org/Graphics/SVG/1.1/DTD/svg11.dtd">
<svg version="1.1" id="Layer_1" xmlns="http://www.w3.org/2000/svg" xmlns:xlink="http://www.w3.org/1999/xlink" x="0px" y="0px"
	 width="200px" height="200px" viewBox="0 0 200 200" enable-background="new 0 0 200 200" xml:space="preserve">
<g>
	<path fill="#FFFFFF" d="M0,150c0,27.614,22.386,50,50,50h100c27.614,0,50-22.386,50-50V50c0-27.614-22.386-50-50-50H50
		C22.386,0,0,22.386,0,50V150z"/>
	<path d="M101.5,0h-28v3H75h25h1.5V0L101.5,0z M51.5,0H50l0,0c-0.007,0-0.016,0-0.023,0c-0.002,0-0.006,0-0.008,0
		c-0.005,0-0.01,0-0.016,0c-0.003,0-0.005,0-0.009,0c-0.005,0-0.011,0-0.016,0c-0.001,0-0.005,0-0.007,0c-0.008,0-0.015,0-0.023,0
		c-0.002,0-0.002,0-0.004,0c-0.006,0-0.013,0-0.019,0c-0.002,0-0.006,0-0.008,0c-0.005,0-0.011,0-0.016,0c-0.003,0-0.004,0-0.008,0
		c-0.006,0-0.011,0-0.017,0c-0.003,0-0.003,0-0.006,0c-0.008,0-0.016,0-0.023,0c-0.001,0-0.004,0-0.006,0c-0.006,0-0.012,0-0.018,0
		c-0.001,0-0.006,0-0.008,0c-0.005,0-0.01,0-0.016,0c-0.003,0-0.005,0-0.009,0c-0.005,0-0.011,0-0.016,0c-0.003,0-0.003,0-0.007,0
		c-0.007,0-0.016,0-0.023,0c-0.002,0-0.003,0-0.004,0c-0.007,0-0.013,0-0.02,0c-0.001,0-0.004,0-0.006,0c-0.006,0-0.011,0-0.017,0
		c-0.002,0-0.006,0-0.007,0c-0.006,0-0.013,0-0.019,0c-0.001,0-0.003,0-0.005,0c-0.008,0-0.016,0-0.023,0c-0.003,0-0.002,0-0.006,0
		c-0.006,0-0.011,0-0.017,0c-0.002,0-0.006,0-0.008,0c-0.005,0-0.011,0-0.017,0c-0.001,0-0.006,0-0.007,0c-0.007,0-0.013,0-0.021,0
		c-0.001,0-0.001,0-0.002,0c-0.008,0-0.016,0-0.023,0c-0.003,0-0.002,0-0.006,0c-0.006,0-0.012,0-0.018,0c-0.002,0-0.005,0-0.007,0
		c-0.006,0-0.012,0-0.018,0c-0.001,0-0.004,0-0.006,0c-0.008,0-0.014,0-0.021,0c-0.002,0-0.001,0-0.003,0c-0.008,0-0.016,0-0.023,0
		c-0.003,0-0.002,0-0.006,0c-0.006,0-0.012,0-0.018,0c-0.002,0-0.004,0-0.006,0c-0.006,0-0.013,0-0.019,0c-0.001,0-0.004,0-0.006,0
		c-0.016,0-0.03,0-0.046,0c-0.001,0-0.005,0-0.006,0c-0.006,0-0.012,0-0.018,0c-0.003,0-0.003,0-0.007,0c-0.006,0-0.011,0-0.017,0
		c-0.001,0-0.005,0-0.007,0c-0.007,0-0.014,0-0.021,0c-0.001,0-0.004,0-0.005,0c-0.006,0-0.013,0-0.02,0c-0.001,0-0.007,0-0.009,0
		c-0.005,0-0.01,0-0.015,0c-0.003,0-0.005,0-0.009,0c-0.005,0-0.01,0-0.016,0c-0.003,0-0.004,0-0.008,0c-0.008,0-0.015,0-0.023,0
		H49.11c-0.007,0-0.015,0-0.021,0c-0.001,0-0.006,0-0.008,0c-0.005,0-0.01,0-0.016,0c-0.003,0-0.004,0-0.007,0
		c-0.006,0-0.012,0-0.018,0h-0.005c-0.008,0-0.016,0-0.024,0c-0.001,0-0.001,0-0.003,0c-0.006,0-0.014,0-0.02,0
		c-0.002,0-0.006,0-0.008,0c-0.005,0-0.011,0-0.016,0c-0.003,0-0.004,0-0.007,0c-0.006,0-0.012,0-0.019,0c-0.002,0-0.003,0-0.005,0
		c-0.008,0-0.016,0-0.024,0c-0.001,0,0,0-0.001,0c-0.007,0-0.014,0-0.021,0c-0.002,0-0.005,0-0.007,0c-0.006,0-0.012,0-0.018,0
		c-0.001,0-0.004,0-0.006,0c-0.007,0-0.014,0-0.021,0c-0.001,0,0,0-0.002,0c-0.008,0-0.016,0-0.024,0.001c-0.002,0-0.001,0-0.003,0
		c-0.006,0-0.013,0-0.02,0c-0.003,0-0.004,0-0.008,0c-0.005,0-0.011,0-0.016,0c-0.002,0-0.005,0-0.007,0c-0.007,0-0.015,0-0.022,0
		c-0.001,0,0,0-0.001,0c-0.008,0-0.016,0-0.024,0.001h-0.002c-0.007,0-0.014,0-0.021,0c-0.003,0-0.004,0-0.007,0
		c-0.005,0-0.012,0-0.017,0c-0.001,0-0.005,0-0.006,0c-0.007,0-0.013,0-0.02,0.001c-0.002,0-0.002,0-0.003,0
		c-0.008,0-0.015,0-0.023,0c-0.003,0-0.004,0-0.007,0c-0.005,0-0.01,0-0.016,0c-0.003,0-0.006,0-0.009,0c-0.005,0-0.01,0-0.016,0
		c-0.001,0-0.005,0-0.007,0c-0.007,0-0.013,0-0.02,0c-0.002,0-0.002,0-0.004,0c-0.007,0-0.015,0-0.022,0c-0.003,0-0.005,0-0.008,0
		c-0.005,0-0.009,0-0.014,0c-0.003,0-0.006,0-0.01,0c-0.004,0-0.01,0-0.015,0c-0.003,0-0.005,0-0.008,0c-0.006,0-0.014,0-0.02,0.001
		c-0.002,0-0.004,0-0.006,0c-0.006,0-0.013,0-0.019,0c-0.001,0-0.006,0-0.008,0c-0.005,0-0.01,0-0.015,0c-0.003,0-0.006,0-0.009,0
		c-0.005,0-0.01,0-0.016,0c-0.003,0-0.003,0-0.007,0c-0.008,0-0.015,0-0.023,0c-0.001,0-0.003,0-0.005,0c-0.005,0-0.013,0-0.019,0
		c-0.001,0-0.006,0-0.007,0c-0.005,0-0.01,0-0.016,0c-0.003,0-0.005,0-0.009,0c-0.005,0-0.01,0-0.016,0c-0.003,0-0.003,0-0.007,0
		c-0.007,0-0.015,0-0.022,0c-0.002,0-0.004,0-0.005,0c-0.006,0-0.012,0-0.018,0c-0.001,0-0.007,0-0.009,0c-0.004,0-0.01,0-0.014,0
		c-0.003,0-0.006,0-0.01,0c-0.005,0-0.01,0-0.015,0c-0.003,0-0.004,0-0.007,0c-0.007,0-0.015,0-0.022,0.001
		c-0.001,0-0.005,0-0.006,0c-0.006,0-0.011,0-0.017,0c-0.002,0-0.006,0-0.008,0c-0.005,0-0.01,0-0.016,0c-0.001,0-0.006,0-0.008,0
		c-0.006,0-0.012,0-0.018,0c-0.001,0-0.004,0-0.005,0c-0.007,0-0.015,0-0.022,0c-0.003,0-0.004,0-0.008,0c-0.004,0-0.01,0-0.015,0
		c-0.003,0-0.006,0-0.009,0c-0.005,0-0.009,0-0.013,0c-0.003,0-0.007,0-0.011,0c-0.005,0-0.01,0-0.015,0c-0.003,0-0.003,0-0.007,0
		c-0.007,0-0.015,0-0.022,0.001c-0.003,0-0.004,0-0.007,0c-0.006,0-0.011,0-0.016,0.001c-0.003,0-0.005,0-0.008,0
		c-0.005,0-0.01,0-0.016,0.001c-0.001,0-0.006,0-0.008,0c-0.007,0-0.014,0-0.021,0.001h-0.001c-0.008,0-0.015,0-0.023,0.001
		c-0.003,0-0.003,0-0.006,0c-0.006,0-0.011,0-0.017,0c-0.003,0-0.004,0-0.008,0c-0.005,0-0.01,0-0.016,0c-0.002,0-0.006,0-0.008,0
		c-0.015,0-0.03,0.001-0.045,0.002c-0.002,0-0.005,0-0.007,0c-0.005,0-0.011,0-0.016,0c-0.003,0-0.005,0-0.009,0
		c-0.005,0-0.01,0-0.015,0.001c-0.002,0-0.006,0-0.007,0c-0.016,0.001-0.031,0.001-0.047,0.002c-0.001,0-0.004,0-0.006,0
		c-0.005,0-0.011,0-0.017,0.001c-0.003,0-0.004,0-0.007,0c-0.005,0-0.011,0-0.016,0c-0.003,0-0.004,0-0.008,0
		c-0.007,0-0.015,0-0.022,0.001c-0.001,0-0.001,0-0.003,0c-0.007,0-0.014,0.001-0.021,0.001c-0.001,0-0.004,0-0.006,0
		c-0.006,0-0.012,0-0.018,0.001c-0.002,0-0.004,0-0.006,0c-0.005,0-0.012,0.001-0.018,0.001c-0.003,0-0.002,0-0.005,0
		c-0.016,0-0.032,0.001-0.047,0.002c-0.001,0-0.003,0-0.005,0c-0.006,0-0.013,0.001-0.019,0.001c-0.001,0-0.003,0-0.005,0
		c-0.007,0-0.013,0-0.02,0.001c-0.002,0-0.003,0-0.004,0c-0.008,0-0.016,0.001-0.024,0.001c-0.001,0,0,0-0.002,0
		c-0.007,0-0.014,0.001-0.021,0.001c-0.001,0-0.006,0-0.007,0c-0.006,0-0.011,0-0.017,0.001c-0.002,0-0.004,0-0.006,0
		c-0.007,0-0.013,0-0.021,0.001c-0.002,0-0.001,0-0.003,0c-0.008,0-0.016,0.001-0.024,0.001c-0.001,0-0.001,0-0.003,0
		c-0.006,0-0.013,0.001-0.02,0.001c-0.002,0-0.005,0-0.007,0c-0.006,0-0.011,0-0.017,0.001c-0.002,0-0.005,0-0.007,0
		c-0.006,0-0.013,0-0.019,0.001c-0.001,0-0.002,0-0.004,0c-0.008,0-0.015,0.001-0.023,0.001c-0.003,0-0.002,0-0.006,0
		c-0.006,0-0.012,0-0.018,0.001c-0.003,0-0.003,0-0.007,0c-0.006,0-0.011,0-0.018,0.001c-0.001,0-0.004,0-0.006,0
		c-0.007,0-0.015,0.001-0.022,0.001h-0.001c-0.008,0-0.015,0.001-0.023,0.001c-0.002,0-0.004,0-0.006,0
		c-0.006,0-0.011,0.001-0.018,0.001c-0.003,0-0.004,0-0.007,0c-0.005,0-0.011,0-0.017,0.001c-0.001,0-0.005,0-0.007,0
		c-0.016,0.001-0.031,0.002-0.046,0.003c-0.001,0-0.003,0-0.005,0c-0.006,0-0.012,0-0.018,0.001c-0.003,0-0.003,0-0.007,0
		c-0.006,0-0.012,0-0.018,0.001c-0.002,0-0.003,0-0.005,0c-0.016,0.001-0.031,0.001-0.046,0.002c-0.001,0-0.005,0-0.006,0
		c-0.006,0-0.012,0.001-0.017,0.001c-0.003,0-0.003,0-0.007,0c-0.006,0-0.013,0.001-0.019,0.001h-0.004
		c-0.008,0-0.016,0.001-0.023,0.001c-0.002,0-0.001,0-0.003,0c-0.007,0-0.013,0.001-0.02,0.001c-0.001,0-0.005,0-0.006,0
		c-0.006,0-0.011,0.001-0.017,0.001c-0.002,0-0.005,0-0.007,0c-0.006,0-0.012,0.001-0.018,0.001c-0.002,0-0.003,0-0.005,0
		c-0.008,0-0.015,0.001-0.023,0.001c-0.001,0-0.002,0-0.004,0c-0.006,0-0.013,0.001-0.02,0.001c-0.001,0-0.004,0-0.006,0
		c-0.006,0-0.011,0-0.018,0.001c-0.002,0-0.005,0-0.007,0c-0.006,0-0.013,0.001-0.02,0.001c-0.002,0-0.001,0-0.003,0
		c-0.008,0-0.016,0.001-0.024,0.001c-0.001,0-0.002,0-0.004,0c-0.006,0-0.013,0.001-0.02,0.001c-0.001,0-0.004,0-0.006,0
		c-0.006,0-0.012,0.001-0.018,0.001c-0.001,0-0.004,0-0.005,0c-0.007,0-0.014,0.001-0.021,0.001c-0.001,0-0.001,0-0.002,0
		c-0.008,0-0.016,0.001-0.024,0.001c-0.001,0-0.001,0-0.003,0c-0.006,0-0.014,0.001-0.02,0.001c-0.001,0-0.004,0-0.006,0
		c-0.006,0-0.011,0-0.018,0.001c-0.001,0-0.004,0-0.006,0c-0.007,0-0.014,0.001-0.021,0.001c-0.002,0,0,0-0.002,0
		c-0.008,0.001-0.016,0.001-0.023,0.002c-0.003,0-0.003,0-0.006,0c-0.005,0-0.011,0-0.017,0.001c-0.001,0-0.005,0-0.006,0
		c-0.006,0-0.012,0.001-0.019,0.001c-0.001,0-0.003,0-0.004,0c-0.016,0.001-0.032,0.002-0.047,0.003c-0.001,0-0.003,0-0.004,0
		c-0.007,0-0.013,0.001-0.02,0.001c-0.001,0-0.003,0-0.005,0c-0.007,0-0.013,0.001-0.021,0.001l-0.003,0
		c-0.016,0.001-0.033,0.002-0.048,0.003l-0.003,0c-0.007,0-0.014,0.001-0.021,0.001h-0.003c-0.007,0.001-0.016,0.001-0.023,0.002
		h-0.001c-0.016,0.001-0.033,0.002-0.049,0.004c-0.001,0-0.001,0-0.003,0c-0.007,0-0.014,0.001-0.021,0.002
		c-0.001,0-0.003,0-0.004,0c-0.007,0.001-0.014,0.001-0.021,0.002h-0.002c-0.016,0.001-0.031,0.002-0.047,0.004
		c-0.001,0-0.004,0-0.006,0c-0.006,0-0.012,0.001-0.018,0.001c-0.002,0-0.004,0-0.006,0c-0.007,0-0.014,0.001-0.021,0.001h-0.002
		c-0.016,0.001-0.032,0.003-0.048,0.004c-0.001,0-0.002,0-0.004,0c-0.006,0-0.013,0.001-0.02,0.001c-0.002,0-0.001,0-0.003,0
		c-0.016,0.001-0.032,0.002-0.048,0.004c-0.001,0,0,0-0.001,0c-0.007,0.001-0.014,0.001-0.021,0.002c-0.001,0-0.003,0-0.005,0
		c-0.006,0-0.013,0.001-0.019,0.001c-0.001,0-0.003,0-0.004,0c-0.007,0-0.015,0.001-0.022,0.002c-0.001,0,0,0-0.001,0
		c-0.008,0.001-0.016,0.001-0.024,0.002l-0.001,0c-0.007,0-0.015,0.001-0.022,0.001c-0.001,0-0.003,0-0.005,0
		c-0.006,0-0.013,0.001-0.02,0.002c-0.001,0-0.002,0-0.004,0c-0.016,0.001-0.032,0.003-0.048,0.004h-0.002
		c-0.007,0-0.014,0.001-0.021,0.002c-0.001,0-0.004,0-0.005,0c-0.006,0-0.013,0.001-0.02,0.001c-0.001,0-0.002,0-0.004,0
		c-0.016,0.001-0.032,0.003-0.048,0.004h-0.002c-0.006,0.001-0.014,0.001-0.021,0.002c-0.001,0-0.003,0-0.005,0
		c-0.006,0-0.013,0.001-0.02,0.002h-0.003c-0.016,0.001-0.032,0.003-0.047,0.004c-0.002,0-0.002,0-0.004,0
		c-0.006,0-0.013,0.001-0.02,0.002c-0.002,0-0.003,0-0.005,0c-0.007,0-0.014,0.001-0.021,0.001l-0.002,0
		c-0.016,0.001-0.032,0.003-0.048,0.004c-0.001,0-0.001,0-0.003,0c-0.007,0-0.013,0.001-0.02,0.001c-0.002,0-0.004,0-0.005,0
		c-0.007,0.001-0.014,0.001-0.021,0.002l-0.002,0c-0.016,0.001-0.032,0.003-0.048,0.004c-0.001,0-0.001,0-0.002,0
		c-0.007,0-0.014,0.001-0.021,0.002c-0.001,0-0.003,0-0.005,0c-0.007,0-0.014,0.001-0.021,0.002h-0.001
		c-0.016,0.001-0.032,0.003-0.048,0.005c-0.001,0-0.002,0-0.004,0c-0.006,0.001-0.014,0.001-0.02,0.002c-0.001,0-0.002,0-0.004,0
		c-0.024,0.002-0.048,0.005-0.072,0.007c-0.001,0,0,0-0.001,0c-0.007,0.001-0.015,0.001-0.022,0.002c-0.001,0,0,0-0.002,0
		c-0.024,0.002-0.049,0.005-0.073,0.007h-0.001c-0.008,0.001-0.016,0.002-0.023,0.002l-0.001,0
		c-0.024,0.002-0.048,0.005-0.072,0.007c-0.001,0-0.002,0-0.004,0c-0.006,0-0.013,0.001-0.02,0.002c-0.001,0-0.002,0-0.003,0
		c-0.024,0.002-0.048,0.005-0.072,0.007H44.7c-0.007,0.001-0.015,0.002-0.022,0.002l-0.002,0c-0.017,0.001-0.032,0.003-0.048,0.005
		l-0.002,0c-0.007,0-0.015,0.001-0.022,0.002h-0.003c-0.008,0.001-0.015,0.001-0.023,0.002h0c-0.017,0.002-0.032,0.003-0.048,0.005
		l-0.002,0c-0.007,0-0.015,0.001-0.021,0.002l-0.003,0C44.494,0.3,44.487,0.3,44.479,0.301h-0.001
		c-0.016,0.002-0.032,0.004-0.048,0.005c-0.002,0-0.001,0-0.003,0c-0.007,0-0.015,0.001-0.021,0.002c-0.002,0-0.001,0-0.002,0
		c-0.007,0.001-0.016,0.002-0.023,0.003h-0.001c-0.016,0.001-0.033,0.003-0.048,0.005c-0.002,0,0,0-0.002,0
		c-0.007,0.001-0.015,0.002-0.022,0.003c-0.001,0,0,0-0.002,0c-0.024,0.003-0.048,0.005-0.072,0.008c-0.001,0-0.001,0-0.003,0
		c-0.007,0-0.014,0.001-0.021,0.002c-0.001,0,0,0-0.002,0c-0.023,0.003-0.048,0.006-0.072,0.008c-0.002,0-0.001,0-0.002,0
		c-0.008,0.001-0.015,0.002-0.023,0.002l0,0c-0.024,0.002-0.049,0.005-0.073,0.008l-0.002,0c-0.008,0.001-0.015,0.001-0.023,0.002
		l-0.001,0c-0.016,0.002-0.032,0.003-0.048,0.005l-0.001,0c-0.008,0.001-0.015,0.001-0.023,0.002l-0.002,0
		c-0.008,0.001-0.015,0.002-0.022,0.003h-0.001c-0.017,0.002-0.033,0.004-0.049,0.006h0c-0.008,0.001-0.015,0.002-0.023,0.003
		l-0.003,0c-0.024,0.003-0.048,0.006-0.072,0.009h-0.001c-0.008,0.001-0.015,0.002-0.022,0.003l-0.002,0
		c-0.024,0.003-0.048,0.006-0.072,0.009h-0.001c-0.007,0.001-0.015,0.002-0.022,0.003c-0.002,0,0,0-0.002,0
		c-0.024,0.003-0.048,0.006-0.072,0.009c-0.002,0-0.001,0-0.003,0c-0.007,0.001-0.014,0.002-0.021,0.003c-0.001,0-0.001,0-0.002,0
		c-0.024,0.003-0.048,0.006-0.072,0.009c-0.001,0,0,0-0.001,0c-0.008,0.001-0.016,0.002-0.023,0.003c-0.002,0,0,0-0.001,0
		c-0.024,0.003-0.048,0.006-0.072,0.009l-0.002,0c-0.007,0.001-0.016,0.002-0.023,0.003h-0.001
		c-0.017,0.002-0.032,0.004-0.049,0.007l0,0c-0.008,0.001-0.016,0.002-0.024,0.003l-0.001,0c-0.008,0.001-0.016,0.002-0.023,0.003
		h-0.001c-0.017,0.002-0.032,0.004-0.048,0.007h-0.001c-0.008,0.001-0.016,0.002-0.023,0.003l0,0
		c-0.09,0.012-0.179,0.024-0.269,0.037c-0.002,0,0,0-0.001,0c-0.008,0.001-0.016,0.002-0.023,0.003h0
		c-0.024,0.003-0.048,0.007-0.072,0.01c-0.002,0,0,0-0.002,0c-0.007,0.001-0.015,0.002-0.022,0.003c-0.001,0,0.001,0-0.001,0
		c-0.024,0.004-0.048,0.007-0.073,0.011h0c-0.032,0.005-0.064,0.01-0.097,0.014l-0.002,0c-0.032,0.005-0.064,0.01-0.096,0.014
		l-0.001,0c-0.008,0.001-0.016,0.002-0.024,0.003l0,0c-0.024,0.004-0.048,0.007-0.072,0.011h-0.001
		c-0.033,0.005-0.064,0.01-0.096,0.015l-0.001,0c-0.032,0.005-0.064,0.01-0.096,0.015l-0.001,0c-0.032,0.005-0.063,0.01-0.096,0.015
		h-0.001c-0.024,0.004-0.048,0.008-0.072,0.012c-0.002,0,0.001,0-0.001,0c-0.007,0.001-0.014,0.002-0.022,0.003
		c-0.001,0-0.001,0-0.003,0C42,0.637,41.976,0.641,41.952,0.645h0c-0.008,0.001-0.015,0.002-0.023,0.004c-0.001,0,0,0-0.001,0
		c-0.122,0.02-0.242,0.04-0.364,0.061h0c-2.444,0.415-4.826,1.008-7.135,1.764h0c-0.084,0.028-0.167,0.055-0.251,0.083h0
		c-0.007,0.002-0.015,0.005-0.022,0.007l0,0c-0.023,0.008-0.045,0.015-0.068,0.023c-0.001,0,0,0-0.001,0
		c-0.061,0.021-0.121,0.041-0.182,0.062H33.9c-0.03,0.01-0.06,0.021-0.09,0.031l-0.001,0c-0.03,0.01-0.06,0.021-0.089,0.031
		l-0.002,0c-0.029,0.01-0.06,0.021-0.089,0.031l-0.002,0.001c-0.022,0.008-0.045,0.016-0.067,0.023l0,0
		c-0.008,0.002-0.015,0.005-0.022,0.007l-0.001,0c-0.022,0.008-0.045,0.016-0.067,0.024l0,0C33.46,2.8,33.453,2.803,33.446,2.806
		c-0.001,0,0.001,0-0.001,0c-0.03,0.011-0.06,0.021-0.089,0.032c-0.002,0,0,0-0.001,0c-0.022,0.008-0.045,0.016-0.067,0.024h0
		c-0.007,0.002-0.014,0.005-0.022,0.008h0c-0.022,0.008-0.045,0.016-0.067,0.024l-0.001,0.001c-0.007,0.002-0.014,0.005-0.021,0.007
		l-0.001,0c-0.022,0.008-0.044,0.016-0.067,0.024l0,0c-0.007,0.003-0.015,0.005-0.022,0.008l-0.001,0
		c-0.015,0.005-0.029,0.011-0.044,0.016l-0.002,0c-0.007,0.002-0.013,0.005-0.02,0.007c-0.001,0-0.002,0-0.003,0.001
		c-0.006,0.002-0.012,0.004-0.018,0.007c-0.001,0-0.002,0.001-0.004,0.001c-0.015,0.005-0.029,0.01-0.043,0.016l-0.001,0
		c-0.007,0.002-0.014,0.005-0.021,0.007l-0.002,0.001C32.917,2.995,32.909,2.997,32.902,3l-0.001,0
		c-0.014,0.005-0.029,0.011-0.044,0.016c-0.001,0,0,0-0.002,0.001c-0.007,0.002-0.014,0.005-0.021,0.008h0
		c-0.022,0.008-0.044,0.016-0.067,0.024c-0.002,0,0,0-0.001,0c-0.007,0.002-0.015,0.005-0.021,0.008c-0.001,0,0.001,0,0,0
		c-0.022,0.008-0.044,0.016-0.066,0.024c-0.002,0-0.001,0-0.002,0c-0.007,0.003-0.014,0.005-0.021,0.008c-0.001,0,0,0-0.001,0
		c-0.015,0.005-0.029,0.011-0.044,0.017l-0.001,0c-0.007,0.002-0.013,0.005-0.02,0.007c-0.001,0-0.003,0.001-0.004,0.001
		c-0.006,0.002-0.012,0.004-0.019,0.007c-0.001,0-0.001,0-0.002,0.001c-0.021,0.008-0.044,0.016-0.065,0.024L32.494,3.15
		c-0.007,0.002-0.014,0.005-0.021,0.007l-0.001,0c-0.022,0.008-0.044,0.017-0.066,0.025l-0.002,0.001
		c-0.022,0.008-0.044,0.017-0.066,0.025l-0.001,0c-0.006,0.002-0.013,0.005-0.02,0.007c-0.001,0-0.002,0.001-0.004,0.001
		c-0.006,0.002-0.013,0.005-0.02,0.007l-0.001,0c-0.015,0.006-0.029,0.011-0.044,0.017l-0.001,0
		c-0.007,0.003-0.013,0.005-0.02,0.008c-0.001,0-0.001,0-0.003,0.001c-0.021,0.008-0.043,0.017-0.065,0.025
		c-0.001,0-0.001,0-0.003,0.001c-0.006,0.002-0.012,0.004-0.018,0.007c-0.001,0-0.003,0.001-0.005,0.002
		c-0.006,0.002-0.013,0.005-0.019,0.007c-0.001,0,0,0-0.002,0c-0.007,0.003-0.014,0.006-0.022,0.008l0,0
		c-0.007,0.003-0.014,0.006-0.021,0.008c-0.001,0-0.001,0-0.003,0.001c-0.006,0.002-0.012,0.005-0.019,0.007
		c-0.001,0-0.002,0.001-0.004,0.001c-0.015,0.005-0.028,0.011-0.042,0.017c-0.001,0-0.001,0-0.002,0.001
		c-0.007,0.002-0.012,0.004-0.019,0.007c-0.001,0.001-0.002,0.001-0.004,0.002c-0.006,0.002-0.012,0.004-0.018,0.007
		c-0.001,0-0.002,0-0.004,0.001c-0.014,0.005-0.028,0.011-0.042,0.016l-0.004,0.001c-0.005,0.002-0.011,0.004-0.017,0.007
		c-0.001,0-0.004,0.001-0.005,0.002c-0.006,0.002-0.011,0.004-0.017,0.006c-0.001,0-0.003,0.001-0.005,0.002
		c-0.014,0.005-0.027,0.011-0.042,0.016c-0.003,0.001-0.002,0.001-0.005,0.002c-0.005,0.002-0.011,0.004-0.017,0.006
		c-0.003,0.001-0.002,0.001-0.005,0.002c-0.005,0.002-0.01,0.004-0.016,0.006c-0.002,0.001-0.004,0.001-0.005,0.002
		c-0.014,0.006-0.027,0.011-0.041,0.017c-0.001,0-0.005,0.002-0.006,0.002c-0.005,0.002-0.009,0.003-0.015,0.005
		c-0.003,0.001-0.003,0.001-0.006,0.003c-0.006,0.002-0.011,0.004-0.016,0.006c-0.001,0.001-0.003,0.001-0.004,0.002
		c-0.014,0.005-0.027,0.011-0.042,0.017c-0.001,0-0.004,0.001-0.006,0.002c-0.005,0.002-0.01,0.004-0.015,0.006
		c-0.003,0.001-0.003,0.001-0.006,0.002c-0.005,0.002-0.009,0.003-0.015,0.005c-0.003,0.001-0.003,0.001-0.006,0.003
		C31.592,3.498,31.586,3.5,31.58,3.502c-0.004,0.002-0.006,0.003-0.011,0.004c-0.003,0.001-0.008,0.003-0.011,0.005
		c-0.005,0.001-0.006,0.002-0.01,0.004c-0.003,0.001-0.007,0.003-0.011,0.004c-0.003,0.001-0.005,0.002-0.008,0.003
		c-0.005,0.002-0.009,0.004-0.014,0.005c-0.003,0.001-0.004,0.002-0.007,0.003c-0.006,0.003-0.013,0.005-0.019,0.008
		c-0.003,0.001-0.005,0.002-0.008,0.003c-0.003,0.001-0.008,0.003-0.012,0.005c-0.003,0.001-0.006,0.002-0.009,0.004
		c-0.003,0.001-0.008,0.003-0.011,0.004c-0.003,0.001-0.006,0.002-0.009,0.004c-0.004,0.001-0.008,0.003-0.011,0.004
		c-0.003,0.001-0.006,0.002-0.009,0.003c-0.006,0.002-0.013,0.005-0.019,0.008c-0.003,0.001-0.004,0.001-0.007,0.002
		c-0.004,0.002-0.009,0.004-0.014,0.006c-0.003,0.001-0.005,0.002-0.008,0.003c-0.004,0.001-0.008,0.003-0.012,0.005
		c-0.003,0.001-0.005,0.002-0.008,0.003c-0.004,0.002-0.008,0.003-0.013,0.005c-0.003,0.001-0.004,0.002-0.007,0.003
		c-0.007,0.002-0.014,0.005-0.02,0.008c-0.003,0.001-0.003,0.001-0.006,0.002c-0.004,0.002-0.009,0.004-0.014,0.005
		c-0.003,0.001-0.006,0.002-0.009,0.004c-0.004,0.001-0.008,0.003-0.012,0.005c-0.001,0-0.006,0.002-0.008,0.003
		c-0.005,0.002-0.011,0.004-0.016,0.007c-0.001,0-0.002,0.001-0.004,0.001c-0.007,0.003-0.013,0.005-0.02,0.008
		c-0.003,0.001-0.005,0.002-0.008,0.003c-0.004,0.001-0.007,0.003-0.012,0.005c-0.003,0.001-0.007,0.002-0.01,0.004
		c-0.003,0.001-0.007,0.003-0.011,0.004c-0.001,0-0.006,0.003-0.008,0.003c-0.005,0.002-0.01,0.004-0.015,0.006
		c-0.001,0-0.006,0.002-0.008,0.003c-0.006,0.002-0.012,0.005-0.018,0.007c-0.001,0.001-0.004,0.002-0.006,0.003
		c-0.005,0.001-0.009,0.003-0.014,0.005c-0.003,0.001-0.004,0.002-0.007,0.003c-0.005,0.001-0.01,0.004-0.015,0.005
		C31.09,3.7,31.087,3.701,31.085,3.702c-0.006,0.002-0.011,0.004-0.018,0.007c-0.003,0.001-0.002,0.001-0.005,0.002
		c-0.005,0.002-0.011,0.004-0.017,0.007c-0.003,0.001-0.005,0.002-0.008,0.003c-0.004,0.001-0.008,0.003-0.013,0.005
		c-0.003,0.001-0.005,0.002-0.008,0.003c-0.004,0.002-0.008,0.003-0.012,0.005c-0.003,0.001-0.005,0.002-0.008,0.003
		c-0.004,0.002-0.009,0.004-0.014,0.006c-0.003,0.001-0.008,0.003-0.011,0.004c-0.004,0.002-0.01,0.004-0.015,0.006
		c-0.001,0-0.006,0.002-0.007,0.003c-0.004,0.001-0.008,0.003-0.012,0.005c-0.003,0.001-0.006,0.003-0.009,0.004
		c-0.003,0.001-0.007,0.003-0.011,0.005c-0.003,0.001-0.006,0.002-0.009,0.003c-0.006,0.002-0.013,0.005-0.019,0.008
		c-0.003,0.001-0.003,0.001-0.006,0.003c-0.004,0.002-0.009,0.003-0.013,0.005c-0.003,0.001-0.006,0.002-0.009,0.004
		c-0.004,0.001-0.007,0.003-0.01,0.004c-0.003,0.001-0.008,0.003-0.011,0.004c-0.003,0.001-0.007,0.003-0.01,0.004
		c-0.003,0.001-0.006,0.002-0.009,0.004c-0.006,0.002-0.012,0.005-0.019,0.008c-0.003,0.001-0.005,0.002-0.008,0.003
		c-0.004,0.001-0.008,0.003-0.013,0.005c-0.003,0.001-0.006,0.002-0.009,0.004c-0.003,0.001-0.007,0.003-0.011,0.004
		c-0.003,0.001-0.006,0.003-0.009,0.004c-0.004,0.002-0.008,0.003-0.012,0.005c-0.003,0.001-0.005,0.002-0.008,0.003
		c-0.006,0.003-0.012,0.005-0.019,0.008c-0.003,0.001-0.005,0.002-0.008,0.003c-0.003,0.001-0.008,0.003-0.012,0.005
		c-0.003,0.001-0.006,0.002-0.009,0.003c-0.003,0.001-0.008,0.003-0.011,0.005c-0.003,0.001-0.006,0.002-0.009,0.004
		c-0.004,0.001-0.009,0.003-0.013,0.005c-0.003,0.001-0.004,0.001-0.007,0.003c-0.006,0.002-0.013,0.005-0.019,0.008
		c-0.003,0.001-0.005,0.002-0.008,0.003c-0.004,0.001-0.008,0.003-0.012,0.005c-0.003,0.001-0.006,0.002-0.009,0.004
		c-0.003,0.001-0.007,0.003-0.01,0.004c-0.003,0.001-0.007,0.003-0.01,0.004c-0.005,0.002-0.009,0.004-0.014,0.006
		c-0.001,0-0.004,0.001-0.005,0.002c-0.006,0.003-0.013,0.006-0.02,0.009c-0.003,0.001-0.004,0.001-0.007,0.002
		c-0.004,0.002-0.009,0.004-0.013,0.005c-0.003,0.001-0.006,0.003-0.009,0.004c-0.003,0.001-0.007,0.003-0.011,0.005
		c-0.004,0.001-0.005,0.002-0.01,0.004s-0.008,0.003-0.013,0.005c-0.001,0.001-0.006,0.003-0.007,0.003
		c-0.006,0.002-0.012,0.005-0.018,0.007c-0.003,0.001-0.007,0.003-0.01,0.004c-0.003,0.002-0.007,0.003-0.011,0.005
		c-0.003,0.001-0.006,0.003-0.009,0.004c-0.003,0.001-0.007,0.003-0.01,0.004c-0.004,0.002-0.005,0.002-0.01,0.004
		c-0.004,0.002-0.008,0.004-0.013,0.005C30.381,3.996,30.378,3.997,30.372,4c-0.004,0.002-0.007,0.003-0.01,0.004
		c-0.004,0.002-0.007,0.003-0.012,0.005c-0.003,0.001-0.005,0.002-0.008,0.003c-0.003,0.001-0.008,0.003-0.011,0.004
		c-0.003,0.001-0.006,0.003-0.009,0.004c-0.004,0.002-0.007,0.003-0.011,0.005c-0.003,0.001-0.006,0.002-0.009,0.004
		c-0.006,0.002-0.012,0.005-0.018,0.007c-0.004,0.001-0.007,0.003-0.011,0.005c-0.004,0.002-0.005,0.002-0.01,0.004
		c-0.003,0.001-0.007,0.003-0.01,0.004c-0.003,0.001-0.007,0.003-0.01,0.005c-0.002,0.001-0.006,0.002-0.008,0.003
		c-0.004,0.001-0.008,0.003-0.012,0.005c-0.001,0-0.003,0.001-0.004,0.002c-0.009,0.004-0.016,0.007-0.025,0.011
		c-0.002,0.001-0.005,0.002-0.007,0.003c-0.004,0.002-0.008,0.004-0.013,0.006c-0.002,0.001-0.004,0.001-0.006,0.002
		c-0.004,0.002-0.009,0.004-0.014,0.006c-0.002,0.001-0.002,0.001-0.004,0.002c-0.015,0.006-0.031,0.014-0.045,0.02
		c-0.001,0-0.003,0.001-0.005,0.002c-0.004,0.002-0.009,0.004-0.014,0.006c-0.001,0-0.003,0.001-0.005,0.002
		c-0.004,0.002-0.009,0.004-0.013,0.006c-0.002,0-0.003,0.001-0.005,0.002c-0.015,0.006-0.029,0.013-0.043,0.019
		c-0.002,0.001-0.005,0.002-0.007,0.003C30.007,4.157,30.004,4.159,30,4.161c-0.003,0.001-0.006,0.002-0.008,0.003
		c-0.003,0.001-0.008,0.003-0.011,0.005c-0.003,0.001-0.005,0.002-0.008,0.003c-0.014,0.006-0.027,0.012-0.042,0.018
		c-0.002,0.001-0.004,0.002-0.007,0.003c-0.004,0.002-0.007,0.003-0.012,0.005C29.91,4.2,29.907,4.201,29.905,4.202
		c-0.004,0.002-0.008,0.003-0.012,0.005c-0.002,0-0.004,0.001-0.005,0.002c-0.015,0.006-0.029,0.013-0.044,0.019
		c-0.002,0.001-0.004,0.002-0.006,0.003c-0.006,0.002-0.007,0.003-0.013,0.006c-0.001,0-0.003,0.001-0.005,0.002
		c-0.004,0.002-0.01,0.004-0.015,0.006l0,0c-0.016,0.007-0.033,0.015-0.049,0.021c-0.001,0-0.003,0.001-0.004,0.002
		c-0.006,0.002-0.008,0.003-0.014,0.006c-0.002,0-0.003,0.001-0.005,0.002c-0.004,0.002-0.01,0.004-0.014,0.006l-0.001,0
		c-0.01,0.005-0.02,0.009-0.03,0.014c-0.001,0-0.002,0.001-0.004,0.001c-0.004,0.002-0.009,0.004-0.013,0.006
		c-0.002,0.001-0.004,0.002-0.006,0.003c-0.004,0.002-0.009,0.004-0.013,0.006c-0.001,0-0.004,0.001-0.005,0.002
		c-0.016,0.007-0.031,0.014-0.047,0.021c-0.001,0-0.001,0-0.002,0c-0.004,0.002-0.01,0.004-0.014,0.006
		c-0.002,0.001-0.003,0.001-0.005,0.002c-0.006,0.002-0.008,0.003-0.013,0.006c-0.002,0.001-0.004,0.002-0.006,0.003
		c-0.016,0.007-0.032,0.014-0.047,0.021l0,0c-0.004,0.002-0.01,0.004-0.015,0.006c-0.001,0-0.003,0.001-0.005,0.002
		c-0.004,0.002-0.01,0.004-0.015,0.006c0,0-0.001,0-0.002,0.001c-0.018,0.008-0.031,0.014-0.049,0.022c-0.001,0-0.001,0-0.002,0.001
		c-0.005,0.003-0.009,0.004-0.015,0.007c-0.001,0-0.002,0.001-0.003,0.001c-0.006,0.002-0.009,0.004-0.015,0.007
		c0,0-0.001,0.001-0.002,0.001c-0.023,0.01-0.044,0.02-0.067,0.03c0,0-0.001,0-0.002,0.001c-0.052,0.023-0.103,0.047-0.154,0.07v0
		c-0.006,0.002-0.011,0.005-0.017,0.007c-0.001,0-0.001,0-0.002,0.001c-1.518,0.697-2.992,1.467-4.423,2.307l1.43,2.612l1.315-0.72
		C34.331,4.986,42.123,3,50,3h1.5V0L51.5,0z M8.755,21.728c-0.28,0.407-0.555,0.822-0.823,1.237l-0.008,0.013
		c-2.276,3.537-4.118,7.378-5.452,11.451l0,0c-0.018,0.054-0.035,0.108-0.053,0.162l0,0c-0.01,0.031-0.02,0.062-0.03,0.092v0
		c-0.008,0.023-0.015,0.046-0.022,0.069v0c-0.002,0.007-0.005,0.015-0.007,0.022c0,0.001,0,0-0.001,0.001
		c-0.007,0.023-0.014,0.046-0.021,0.069l0,0c-0.002,0.008-0.005,0.015-0.007,0.023l0,0c-0.007,0.023-0.014,0.046-0.021,0.068
		L2.308,34.94c-0.002,0.007-0.004,0.014-0.006,0.021l0,0c-0.005,0.016-0.009,0.03-0.014,0.046l0,0.001
		c-0.002,0.007-0.004,0.014-0.007,0.021c0,0.001,0,0.001-0.001,0.003c-0.004,0.015-0.009,0.03-0.014,0.045l0,0
		c-0.002,0.007-0.005,0.015-0.007,0.022c0,0.001-0.001,0.002-0.001,0.003c-0.002,0.007-0.004,0.013-0.006,0.02
		c0,0.001,0,0.001-0.001,0.002c-0.004,0.015-0.009,0.03-0.014,0.045l-0.001,0.003c-0.002,0.006-0.004,0.013-0.006,0.019
		c0,0.001-0.001,0.003-0.001,0.004c-0.002,0.006-0.004,0.013-0.006,0.018c0,0.002,0,0.003-0.001,0.004
		c-0.004,0.015-0.009,0.029-0.014,0.043c0,0.001-0.001,0.004-0.001,0.005C2.204,35.274,2.202,35.28,2.2,35.285
		c0,0.002-0.001,0.004-0.001,0.006c-0.002,0.006-0.003,0.011-0.005,0.017c0,0.001-0.001,0.003-0.001,0.004
		c-0.002,0.007-0.004,0.015-0.007,0.022v0c-0.002,0.007-0.004,0.013-0.006,0.02c0,0.002-0.001,0.006-0.002,0.007
		c-0.001,0.005-0.003,0.009-0.004,0.014c-0.001,0.003-0.001,0.004-0.002,0.007c-0.002,0.006-0.003,0.011-0.005,0.017
		c0,0.002,0,0.003-0.001,0.004c-0.002,0.007-0.004,0.015-0.007,0.022c0,0.001,0,0.001,0,0.002c-0.002,0.006-0.004,0.012-0.006,0.018
		c-0.001,0.003-0.001,0.005-0.002,0.008c-0.001,0.004-0.002,0.009-0.004,0.014c0,0.001-0.002,0.007-0.002,0.008
		c-0.001,0.005-0.003,0.01-0.005,0.016c0,0.001-0.001,0.004-0.001,0.005c-0.002,0.006-0.004,0.014-0.006,0.02
		c0,0.003-0.002,0.006-0.002,0.01c-0.001,0.003-0.002,0.007-0.003,0.011S2.121,35.547,2.12,35.55
		c-0.001,0.004-0.002,0.008-0.003,0.012c-0.001,0.003-0.002,0.005-0.002,0.008c-0.002,0.006-0.003,0.011-0.005,0.016
		c-0.001,0.005-0.002,0.008-0.004,0.012c-0.001,0.004-0.002,0.009-0.004,0.014c-0.001,0.003-0.002,0.006-0.003,0.009
		c-0.001,0.004-0.002,0.008-0.003,0.012c-0.001,0.003-0.002,0.007-0.003,0.01c-0.001,0.004-0.002,0.008-0.003,0.012
		c-0.001,0.003-0.002,0.006-0.003,0.009c-0.002,0.007-0.004,0.013-0.006,0.02c-0.001,0.003-0.001,0.004-0.002,0.007
		c-0.001,0.005-0.002,0.009-0.004,0.014c-0.001,0.003-0.001,0.006-0.002,0.009c-0.001,0.004-0.002,0.008-0.004,0.013
		c-0.001,0.003-0.002,0.006-0.003,0.009C2.063,35.74,2.062,35.745,2.06,35.75c-0.001,0.003-0.001,0.004-0.002,0.007
		c-0.002,0.006-0.004,0.014-0.006,0.02c-0.001,0.003-0.002,0.005-0.003,0.008c-0.001,0.004-0.002,0.009-0.004,0.013
		c0,0.003-0.001,0.006-0.002,0.009c-0.001,0.003-0.002,0.007-0.003,0.011c-0.001,0.005-0.002,0.006-0.003,0.011
		c-0.001,0.004-0.002,0.008-0.004,0.012c-0.001,0.005-0.002,0.009-0.004,0.013c-0.001,0.005-0.003,0.01-0.004,0.015
		c-0.001,0.005-0.001,0.005-0.003,0.01c-0.001,0.003-0.002,0.008-0.003,0.011s-0.002,0.007-0.003,0.01
		c-0.001,0.003-0.002,0.007-0.003,0.01c-0.001,0.005-0.002,0.007-0.003,0.012c-0.001,0.004-0.002,0.009-0.003,0.013
		C2.004,35.94,2.001,35.948,2,35.953C2,35.956,1.999,35.958,1.998,35.962c-0.001,0.004-0.002,0.007-0.003,0.012
		c-0.001,0.003-0.002,0.006-0.003,0.009s-0.002,0.008-0.003,0.011c-0.001,0.003-0.001,0.006-0.002,0.01s-0.002,0.008-0.003,0.011
		c-0.002,0.006-0.003,0.012-0.005,0.019c-0.001,0.005-0.002,0.008-0.004,0.013c0,0.002-0.001,0.005-0.002,0.008
		c-0.001,0.005-0.002,0.009-0.004,0.013c-0.001,0.002-0.001,0.005-0.002,0.007c-0.001,0.005-0.002,0.008-0.003,0.013
		c-0.001,0.002-0.001,0.004-0.002,0.006c-0.003,0.009-0.005,0.018-0.008,0.027c0,0.002-0.001,0.003-0.001,0.005
		c-0.001,0.004-0.002,0.008-0.004,0.013c0,0.002-0.001,0.005-0.002,0.007c-0.001,0.003-0.003,0.01-0.004,0.013
		s-0.001,0.005-0.002,0.008c-0.001,0.004-0.003,0.009-0.004,0.014c0,0,0,0,0,0.001c-0.003,0.011-0.006,0.023-0.01,0.034
		c0,0.001,0,0.001-0.001,0.003c-0.001,0.005-0.002,0.01-0.004,0.014c0,0.002-0.001,0.004-0.002,0.007
		c-0.001,0.004-0.003,0.01-0.004,0.014c0,0.001-0.001,0.003-0.001,0.004c-0.004,0.016-0.009,0.033-0.014,0.048
		c0,0.002-0.001,0.004-0.001,0.006c-0.001,0.005-0.003,0.009-0.004,0.014c0,0.002-0.001,0.004-0.002,0.006
		c-0.001,0.005-0.003,0.01-0.004,0.015c0,0.001-0.001,0.003-0.001,0.004c-0.005,0.017-0.009,0.033-0.014,0.05
		c0,0.001,0,0.002-0.001,0.003c-0.001,0.006-0.002,0.009-0.004,0.016c0,0.001-0.001,0.003-0.001,0.004
		c-0.007,0.023-0.014,0.048-0.02,0.071c0,0,0,0.001,0,0.001c-0.009,0.031-0.017,0.061-0.025,0.092c0,0,0,0,0,0.001
		c-0.001,0.006-0.003,0.012-0.005,0.018l0,0c-0.007,0.025-0.014,0.049-0.021,0.074l0,0c-0.007,0.025-0.014,0.05-0.021,0.075l0,0
		c-0.982,3.586-1.576,7.333-1.731,11.193l2.971,0.208l0.105-1.497c0.549-7.835,3.083-15.464,7.33-22.062l0.812-1.261L8.755,21.728
		L8.755,21.728z M3,69.951H0v1.5v25v1.5h3v-1.5v-25V69.951L3,69.951z M3,119.951H0v1.5v25v1.5h3v-1.5v-25V119.951L3,119.951z
		 M6.622,168.188l-2.707,1.239c0.191,0.455,0.39,0.905,0.594,1.353l0.01,0.021c0.544,1.187,1.133,2.35,1.765,3.484l0.001,0.002
		c0.003,0.007,0.007,0.013,0.011,0.02l0.001,0.002c0.008,0.014,0.016,0.027,0.023,0.042c0,0.001,0-0.001,0,0.001
		c0.004,0.007,0.007,0.013,0.011,0.02c0.001,0.002,0,0,0,0.001c0.008,0.015,0.016,0.028,0.024,0.042v0.001
		c0.004,0.007,0.007,0.013,0.011,0.02c0.001,0.001,0.001,0.002,0.002,0.003c0.004,0.007,0.007,0.013,0.011,0.02l0,0.001
		c0.004,0.007,0.008,0.014,0.012,0.021c0.001,0.001,0,0.001,0.001,0.002c0.003,0.007,0.006,0.012,0.01,0.019
		c0.001,0.001,0.001,0.002,0.002,0.004c0.003,0.005,0.006,0.011,0.009,0.017c0.001,0.001,0.001,0.002,0.002,0.003
		c0.008,0.014,0.015,0.027,0.022,0.04c0.001,0.002,0.002,0.004,0.003,0.005c0.003,0.005,0.006,0.011,0.009,0.016
		c0,0.001,0.001,0.003,0.002,0.004c0.003,0.007,0.007,0.013,0.01,0.019c0.001,0.002,0,0,0.001,0.002
		c0.004,0.007,0.007,0.014,0.011,0.02c0.001,0.002,0.001,0.003,0.002,0.004c0.003,0.006,0.005,0.01,0.008,0.016
		c0.002,0.003,0.002,0.003,0.004,0.006c0.003,0.006,0.005,0.01,0.008,0.016c0.001,0.001,0.002,0.003,0.002,0.004
		c0.003,0.007,0.008,0.014,0.011,0.02c0.001,0.002,0.001,0.003,0.002,0.004c0.003,0.005,0.006,0.01,0.009,0.016
		c0.001,0.002,0.002,0.004,0.004,0.007c0.002,0.004,0.005,0.009,0.007,0.013c0.001,0.001,0.003,0.006,0.004,0.007
		c0.007,0.013,0.015,0.025,0.022,0.038c0,0.001,0.002,0.004,0.003,0.006c0.002,0.004,0.005,0.01,0.008,0.014
		c0.001,0.002,0.003,0.005,0.003,0.007c0.003,0.005,0.005,0.009,0.008,0.014c0.001,0.001,0.002,0.004,0.003,0.006
		c0.004,0.006,0.007,0.012,0.011,0.018c0.001,0.003,0.002,0.004,0.003,0.007c0.003,0.005,0.005,0.009,0.008,0.014
		c0.001,0.002,0.002,0.004,0.004,0.007c0.002,0.004,0.006,0.01,0.008,0.014c0.001,0.003,0.001,0.002,0.002,0.005
		c0.004,0.006,0.007,0.013,0.011,0.019c0.001,0.003,0.003,0.005,0.004,0.008c0.002,0.003,0.005,0.008,0.007,0.012
		c0.001,0.003,0.003,0.006,0.005,0.009c0.002,0.003,0.004,0.007,0.006,0.01c0.002,0.004,0.003,0.005,0.005,0.009
		c0.002,0.004,0.004,0.007,0.006,0.011c0.003,0.006,0.007,0.012,0.01,0.017c0.001,0.003,0.003,0.006,0.005,0.009
		c0.002,0.004,0.004,0.007,0.006,0.011c0.001,0.003,0.003,0.005,0.005,0.008c0.001,0.003,0.004,0.007,0.005,0.01
		c0.002,0.004,0.004,0.007,0.006,0.011c0.002,0.004,0.005,0.008,0.007,0.013c0.002,0.004,0.005,0.009,0.008,0.013
		c0.002,0.005,0.003,0.006,0.005,0.01c0.002,0.003,0.003,0.006,0.005,0.009c0.001,0.003,0.004,0.008,0.006,0.011
		c0.001,0.002,0.003,0.006,0.005,0.009c0.002,0.004,0.004,0.006,0.006,0.01c0.001,0.002,0.002,0.005,0.004,0.007
		c0.004,0.007,0.008,0.014,0.012,0.021c0.001,0.003,0.003,0.005,0.005,0.008c0.002,0.004,0.003,0.006,0.006,0.01
		c0.001,0.003,0.003,0.006,0.005,0.009c0.002,0.004,0.004,0.007,0.006,0.011c0.001,0.003,0.002,0.005,0.004,0.007
		c0.005,0.009,0.008,0.014,0.013,0.022c0.001,0.001,0.002,0.004,0.003,0.005c0.002,0.005,0.004,0.008,0.007,0.012
		c0.001,0.002,0.003,0.006,0.004,0.008c0.002,0.004,0.004,0.007,0.006,0.011c0.001,0.002,0.002,0.005,0.004,0.007
		c0.008,0.014,0.015,0.026,0.023,0.04c0.001,0.002,0.002,0.004,0.003,0.006c0.003,0.006,0.004,0.008,0.008,0.013
		c0,0.002,0.001,0.003,0.002,0.004c0.008,0.014,0.018,0.03,0.026,0.044c0,0.001,0.001,0.002,0.002,0.004
		c0.003,0.005,0.005,0.008,0.008,0.014c0,0.001,0.001,0.002,0.002,0.003c0.003,0.006,0.005,0.009,0.008,0.015
		c0,0,0,0.001,0.001,0.001c0.006,0.011,0.011,0.02,0.018,0.03c0,0,0,0.001,0.001,0.001c0.002,0.005,0.005,0.01,0.008,0.014
		c0.001,0.002,0.002,0.003,0.002,0.005c0.003,0.005,0.005,0.008,0.008,0.014c0,0,0.001,0.001,0.001,0.002
		c0.013,0.021,0.024,0.041,0.037,0.062c0,0.001,0,0.001,0.001,0.002c0.013,0.021,0.024,0.041,0.038,0.062
		c0,0.001,0,0.001,0.001,0.002c0.013,0.021,0.025,0.042,0.038,0.064l0,0c0.058,0.097,0.116,0.193,0.175,0.29l0,0.001
		c3.597,5.919,8.388,11.032,14.039,15.005l1.784-2.384l-1.201-0.899c-6.297-4.714-11.351-10.972-14.615-18.098L6.622,168.188
		L6.622,168.188z M41.86,196.322l-0.418,2.948c0.482,0.083,0.969,0.16,1.455,0.229l0.027,0.004c0.406,0.058,0.814,0.11,1.223,0.158
		c0.002,0-0.001,0,0,0c0.026,0.003,0.052,0.006,0.079,0.009c0.001,0.001,0.003,0.001,0.005,0.001
		c0.017,0.002,0.034,0.004,0.05,0.006c0.002,0,0.003,0,0.005,0.001c0.007,0,0.014,0.001,0.021,0.002c0.002,0,0.003,0,0.005,0.001
		c0.008,0.001,0.016,0.001,0.024,0.002c0.001,0.001,0.003,0.001,0.005,0.001c0.006,0.001,0.013,0.001,0.02,0.002
		c0.003,0.001,0.004,0.001,0.008,0.001c0.006,0.001,0.013,0.002,0.019,0.002c0.001,0,0.004,0.001,0.006,0.001
		c0.008,0.001,0.015,0.002,0.023,0.003c0.002,0,0.007,0,0.009,0.001c0.005,0,0.01,0.001,0.015,0.001
		c0.005,0.001,0.006,0.001,0.011,0.001c0.007,0.001,0.014,0.002,0.021,0.003c0.003,0,0.006,0,0.01,0.001
		c0.005,0,0.01,0.001,0.015,0.002c0.003,0,0.008,0,0.012,0.001c0.004,0,0.008,0.001,0.013,0.001
		c0.003,0.001,0.008,0.001,0.011,0.001c0.007,0.001,0.014,0.002,0.021,0.003c0.005,0,0.008,0.001,0.013,0.001
		c0.004,0.001,0.007,0.001,0.011,0.001c0.005,0.001,0.008,0.001,0.013,0.002c0.003,0,0.006,0.001,0.009,0.001
		c0.01,0.001,0.017,0.002,0.026,0.003c0.002,0,0.004,0,0.007,0.001c0.005,0,0.011,0.001,0.016,0.001
		c0.002,0,0.004,0.001,0.006,0.001c0.016,0.002,0.036,0.004,0.052,0.006c0.001,0,0.003,0,0.005,0
		c0.006,0.001,0.01,0.001,0.017,0.002c0.001,0,0.003,0,0.004,0c0.011,0.002,0.024,0.003,0.035,0.004c0,0,0,0,0,0
		c0.007,0.001,0.012,0.001,0.019,0.002c0.001,0,0.002,0,0.003,0c0.02,0.003,0.036,0.004,0.056,0.006
		c0.001,0,0.002,0.001,0.002,0.001c0.007,0,0.012,0.001,0.019,0.002l0,0c0.02,0.002,0.039,0.004,0.059,0.006c0,0,0,0,0.001,0
		c1.051,0.105,2.11,0.179,3.179,0.219c0,0,0,0,0,0c0.047,0.002,0.092,0.003,0.139,0.005c0,0,0.001,0,0.002,0
		c0.02,0.001,0.037,0.001,0.057,0.002c0.001,0,0.002,0,0.003,0c0.007,0,0.012,0.001,0.019,0.001c0,0,0.001,0,0.001,0
		c0.019,0.001,0.038,0.001,0.056,0.002c0.002,0,0.004,0,0.006,0c0.018,0.001,0.037,0.001,0.055,0.002c0.001,0,0.002,0,0.003,0
		c0.007,0,0.01,0,0.017,0c0.002,0,0.004,0,0.006,0.001c0.017,0,0.037,0.001,0.053,0.001c0.002,0,0.004,0,0.006,0
		c0.005,0,0.011,0.001,0.017,0.001c0.002,0,0.004,0,0.006,0c0.01,0,0.02,0.001,0.03,0.001c0.002,0,0.004,0,0.006,0
		c0.005,0,0.011,0,0.016,0c0.003,0.001,0.005,0.001,0.008,0.001c0.017,0,0.033,0.001,0.05,0.001c0.003,0,0.006,0,0.009,0
		c0.005,0,0.009,0.001,0.014,0.001c0.004,0,0.008,0,0.012,0c0.007,0,0.013,0,0.019,0.001c0.004,0,0.009,0,0.014,0
		c0.005,0,0.008,0,0.013,0c0.004,0,0.007,0,0.011,0c0.005,0.001,0.009,0.001,0.014,0.001c0.007,0,0.014,0,0.021,0
		c0.003,0,0.009,0.001,0.012,0.001c0.004,0,0.008,0,0.012,0c0.003,0,0.009,0,0.012,0c0.004,0,0.009,0,0.013,0
		c0.005,0.001,0.012,0.001,0.017,0.001c0.005,0,0.01,0,0.016,0c0.005,0,0.007,0,0.012,0.001c0.004,0,0.008,0,0.013,0
		c0.005,0,0.006,0,0.011,0c0.007,0,0.015,0,0.022,0.001c0.003,0,0.007,0,0.01,0c0.005,0,0.01,0,0.015,0c0.003,0,0.008,0,0.011,0
		c0.005,0,0.009,0,0.014,0.001c0.003,0,0.007,0,0.011,0c0.007,0,0.014,0,0.021,0c0.003,0,0.007,0,0.011,0
		c0.005,0.001,0.01,0.001,0.015,0.001s0.006,0,0.011,0c0.006,0,0.013,0,0.019,0c0.005,0,0.009,0,0.014,0.001
		c0.004,0,0.009,0,0.014,0c0.003,0,0.009,0,0.012,0c0.004,0,0.009,0,0.013,0c0.003,0,0.008,0,0.011,0
		c0.008,0.001,0.015,0.001,0.022,0.001c0.003,0,0.007,0,0.01,0c0.004,0,0.009,0,0.014,0c0.003,0,0.007,0,0.011,0
		c0.006,0.001,0.012,0.001,0.018,0.001c0.005,0,0.008,0,0.014,0s0.011,0,0.016,0c0.003,0,0.007,0,0.01,0
		c0.005,0,0.011,0,0.016,0.001c0.003,0,0.006,0,0.009,0c0.007,0,0.015,0,0.023,0c0.003,0,0.005,0,0.009,0c0.005,0,0.011,0,0.016,0
		c0.003,0,0.007,0,0.01,0c0.007,0.001,0.015,0.001,0.022,0.001h0.003c0.008,0,0.016,0,0.023,0c0.002,0,0.007,0,0.009,0
		c0.006,0,0.012,0,0.018,0c0.003,0,0.004,0,0.008,0.001c0.008,0,0.016,0,0.024,0c0.003,0,0.004,0,0.007,0c0.006,0,0.012,0,0.018,0
		c0.003,0,0.005,0,0.009,0c0.006,0,0.013,0,0.019,0c0.001,0,0.006,0,0.008,0c0.007,0.001,0.015,0.001,0.022,0.001
		c0.002,0,0.007,0,0.009,0c0.005,0,0.011,0,0.016,0c0.002,0,0.007,0,0.009,0c0.008,0,0.016,0,0.024,0c0.001,0,0.005,0,0.006,0
		c0.006,0,0.013,0,0.019,0c0.003,0,0.005,0,0.008,0c0.007,0.001,0.014,0.001,0.021,0.001c0.001,0,0.002,0,0.004,0
		c0.008,0,0.017,0,0.025,0c0.001,0,0.005,0,0.007,0c0.006,0,0.013,0,0.02,0c0.001,0,0.005,0,0.007,0c0.008,0,0.016,0,0.024,0
		c0.002,0,0.003,0,0.005,0c0.006,0,0.014,0,0.02,0c0.003,0,0.005,0,0.008,0c0.006,0,0.013,0,0.019,0c0.003,0,0.003,0,0.007,0
		C49.785,200,49.792,200,49.8,200c0.002,0,0.006,0,0.008,0c0.006,0,0.012,0,0.018,0c0.002,0,0.006,0,0.008,0
		c0.008,0,0.017,0,0.025,0c0.001,0,0.001,0,0.003,0c0.007,0,0.015,0,0.022,0c0.003,0,0.005,0,0.008,0c0.006,0,0.013,0,0.02,0
		c0.003,0,0.002,0,0.005,0c0.008,0,0.017,0,0.025,0c0.003,0,0.003,0,0.006,0c0.006,0,0.013,0,0.019,0c0.002,0,0.006,0,0.008,0
		c0.008,0,0.017,0,0.025,0h17.902h1.5v-3h-1.5H50c-2.228,0-4.466-0.157-6.655-0.467L41.86,196.322L41.86,196.322z M119.402,197h-1.5
		h-25h-1.5v3h1.5h25h1.5V197L119.402,197z M167.878,193.507l-1.404,0.526C161.213,196.002,155.671,197,150,197h-7.098h-1.5v3h1.5
		H150c0.011,0,0.022,0,0.033,0h0.004c0.011,0,0.021,0,0.031,0c0.002,0,0.005,0,0.007,0c0.011,0,0.021,0,0.031,0
		c0.001,0,0.003,0,0.005,0c0.011,0,0.021,0,0.032,0c0.001,0,0.002,0,0.004,0c0.011,0,0.021,0,0.031,0c0.002,0,0.001,0,0.003,0
		c0.01,0,0.021,0,0.031,0c0.002,0,0.004,0,0.006,0c0.01-0.001,0.021-0.001,0.031-0.001c0.003,0,0.002,0,0.006,0
		c0.01,0,0.021,0,0.03,0c0.002,0,0.005,0,0.006,0c0.012,0,0.021,0,0.033,0l0,0c0.012,0,0.022,0,0.034,0c0.001,0,0.001,0,0.002,0
		c0.012,0,0.022,0,0.033-0.001c0.002,0,0.003,0,0.004,0c0.011,0,0.021,0,0.032,0c0.001,0,0.004,0,0.006,0c0.01,0,0.021,0,0.031,0
		h0.004c0.011,0,0.022,0,0.033-0.001h0.001c0.011,0,0.021,0,0.032,0c0.002,0,0.003,0,0.005,0c0.01,0,0.021,0,0.031,0
		c0.001,0,0.004,0,0.006,0c0.011,0,0.021-0.001,0.031-0.001c0.002,0,0.003,0,0.005,0c0.011,0,0.021,0,0.032,0
		c0.002,0,0.001,0,0.003,0c0.011,0,0.021-0.001,0.033-0.001h0.001c0.011,0,0.021,0,0.032,0c0.002,0,0.004,0,0.006,0
		c0.01,0,0.021-0.001,0.03-0.001c0.004,0,0.003,0,0.007,0c0.01,0,0.021,0,0.03,0c0.002,0,0.004,0,0.006,0
		c0.011-0.001,0.021-0.001,0.031-0.001c0.002,0,0.002,0,0.004,0c0.01,0,0.021,0,0.03,0c0.002,0,0.003-0.001,0.005-0.001
		c0.01,0,0.021,0,0.031,0c0.001,0,0.004,0,0.005,0c0.011,0,0.021-0.001,0.031-0.001c0.002,0,0.004,0,0.006,0
		c0.011,0,0.021,0,0.031,0l0.004-0.001c0.012,0,0.022,0,0.033,0h0.001c0.011,0,0.021-0.001,0.032-0.001h0.005
		c0.01,0,0.021,0,0.031-0.001c0.002,0,0.004,0,0.006,0c0.01,0,0.021,0,0.031,0c0.001-0.001,0.003-0.001,0.005-0.001
		c0.011,0,0.021,0,0.031,0c0.002,0,0.003,0,0.005,0c0.01-0.001,0.021-0.001,0.031-0.001h0.002c0.011,0,0.021-0.001,0.033-0.001
		c0.001,0,0.002,0,0.004,0c0.011,0,0.021-0.001,0.032-0.001h0.004c0.011,0,0.021-0.001,0.032-0.001c0.002,0,0.002,0,0.004,0
		c0.011,0,0.022-0.001,0.033-0.001c0.002,0,0,0,0.002,0c0.011,0,0.021,0,0.033-0.001c0.001,0,0,0,0.002,0
		c0.011,0,0.021,0,0.032-0.001c0.002,0,0.003,0,0.005,0c0.011,0,0.021,0,0.031-0.001c0.002,0,0.004,0,0.006,0
		c0.011,0,0.021-0.001,0.031-0.001h0.004c0.012,0,0.021-0.001,0.033-0.001h0.002c0.011,0,0.021-0.001,0.032-0.001h0.003
		c0.011,0,0.021-0.001,0.032-0.001c0.001,0,0.004,0,0.005,0c0.011-0.001,0.021-0.001,0.031-0.001c0.002,0,0.004,0,0.005,0
		c0.011-0.001,0.021-0.001,0.032-0.002c0.002,0,0.002,0,0.003,0c0.012,0,0.022,0,0.034-0.001l0,0c0.011,0,0.021,0,0.032-0.001
		c0.002,0,0.004,0,0.005,0c0.011,0,0.021-0.001,0.031-0.001c0.002,0,0.004,0,0.006,0c0.011-0.001,0.021-0.001,0.031-0.001
		c0.001,0,0.004-0.001,0.005-0.001c0.011,0,0.021,0,0.032-0.001c0.002,0,0.001,0,0.003,0c0.01,0,0.021-0.001,0.031-0.001
		c0.002,0,0.002,0,0.003,0c0.011-0.001,0.021-0.001,0.032-0.001c0.002,0,0.003-0.001,0.005-0.001c0.01,0,0.021,0,0.031-0.001
		c0.002,0,0.003,0,0.005,0c0.011,0,0.021-0.001,0.032-0.001c0.001,0,0.002,0,0.004,0c0.011-0.001,0.022-0.001,0.033-0.002h0.001
		c0.011,0,0.021-0.001,0.032-0.001c0.002,0,0.002,0,0.004,0c0.01-0.001,0.021-0.001,0.031-0.002c0.002,0,0.004,0,0.006,0
		c0.01,0,0.021-0.001,0.031-0.001c0.001,0,0.003,0,0.005,0c0.011-0.001,0.021-0.001,0.031-0.002h0.004
		c0.011,0,0.021-0.001,0.032-0.001h0.001c0.011-0.001,0.022-0.001,0.033-0.002c0.001,0,0.003,0,0.004,0
		c0.011,0,0.021-0.001,0.032-0.001c0.001-0.001,0.003-0.001,0.005-0.001c0.01,0,0.021-0.001,0.03-0.001c0.002,0,0.005,0,0.006,0
		c0.011-0.001,0.021-0.001,0.032-0.002c0.002,0,0,0,0.001,0c0.012,0,0.023-0.001,0.034-0.002c0.002,0,0,0.001,0.001,0
		c0.012,0,0.022-0.001,0.034-0.001c0.001,0,0.001,0,0.003,0c0.011-0.001,0.021-0.001,0.032-0.002c0.001,0,0.003,0,0.005,0
		c0.011-0.001,0.021-0.001,0.032-0.002h0.002c0.023-0.001,0.047-0.002,0.07-0.003l0,0c0.011-0.001,0.022-0.002,0.033-0.002
		c0.002,0,0.002,0,0.004,0c0.011-0.001,0.021-0.001,0.032-0.002c0.002,0,0.002,0,0.004,0c0.011-0.001,0.021-0.001,0.033-0.002h0.002
		c0.022-0.001,0.046-0.003,0.068-0.004h0.002c0.011-0.001,0.022-0.001,0.033-0.002h0.003c0.012-0.001,0.022-0.001,0.033-0.002
		c0.002,0,0.001,0,0.003,0c0.023-0.001,0.046-0.003,0.069-0.004c0.001,0-0.001,0,0.001,0c0.011-0.001,0.022-0.001,0.034-0.002h0.002
		c0.011-0.001,0.021-0.001,0.032-0.002h0.004c0.011-0.001,0.022-0.002,0.033-0.002h0.002c0.035-0.002,0.069-0.005,0.104-0.007
		c0.002,0,0.002,0,0.003,0c0.012-0.001,0.022-0.001,0.033-0.002c0.002,0,0.002,0,0.003,0c0.011-0.001,0.022-0.002,0.033-0.002h0.002
		c0.023-0.002,0.046-0.003,0.069-0.005h0.001c0.012-0.001,0.022-0.001,0.034-0.002h0.002c0.012-0.001,0.022-0.002,0.033-0.002
		c0.002-0.001,0.002-0.001,0.004-0.001c0.011,0,0.021-0.001,0.033-0.002c0.001,0-0.001,0,0.001,0
		c0.022-0.002,0.046-0.003,0.068-0.005c0.002,0,0.001,0,0.003,0c0.011-0.001,0.021-0.001,0.032-0.002h0.004
		c0.011-0.001,0.022-0.002,0.033-0.003h0.002c0.034-0.002,0.068-0.005,0.104-0.007c0.001,0,0.001,0,0.003,0
		c0.011-0.001,0.021-0.002,0.033-0.003c0.001,0,0.001,0,0.002,0c0.012-0.001,0.022-0.002,0.034-0.002l0.001-0.001
		c0.023-0.001,0.047-0.003,0.069-0.005h0.001c0.012-0.001,0.023-0.002,0.034-0.002l0.002-0.001c0.012,0,0.022-0.001,0.034-0.002
		c0.002,0-0.001,0,0.001,0c0.035-0.003,0.07-0.006,0.105-0.008l0.001-0.001c0.011,0,0.022-0.001,0.034-0.002h0.001
		c0.012-0.001,0.023-0.002,0.034-0.003h0.002c0.034-0.003,0.069-0.006,0.104-0.009c0.002,0,0.001,0,0.003,0
		c0.011-0.001,0.022-0.002,0.033-0.003h0.002c0.035-0.003,0.069-0.006,0.104-0.009h0.001c0.012-0.001,0.022-0.002,0.034-0.003h0.002
		c0.011-0.001,0.021-0.002,0.033-0.003c0.001,0,0.001,0,0.003,0c0.034-0.003,0.069-0.006,0.104-0.009h0.001
		c0.011-0.001,0.022-0.002,0.034-0.003h0.002c0.046-0.005,0.092-0.009,0.139-0.013c0.001,0,0.001,0,0.003,0
		c0.011-0.001,0.021-0.002,0.033-0.003l0.001-0.001c0.047-0.004,0.094-0.008,0.141-0.013l0,0c0.059-0.006,0.117-0.011,0.176-0.017
		h0.001c4.391-0.43,8.615-1.427,12.599-2.918l0.015-0.006c0.464-0.173,0.926-0.354,1.383-0.541L167.878,193.507L167.878,193.507z
		 M196.264,158.471l-0.315,1.467c-1.647,7.654-5.24,14.847-10.391,20.8l-0.982,1.134l2.252,1.948
		c0.34-0.369,0.674-0.743,1.002-1.123c0.003-0.003,0.006-0.007,0.009-0.01c0.002-0.003,0.003-0.004,0.005-0.007
		c0.005-0.005,0.01-0.011,0.014-0.016c0.001-0.001,0.003-0.003,0.004-0.004c0.004-0.005,0.007-0.008,0.011-0.013
		c0.002-0.002,0.004-0.004,0.006-0.007s0.005-0.006,0.008-0.009c0.002-0.002,0.005-0.006,0.007-0.008
		c0.003-0.004,0.007-0.008,0.01-0.012c0.001-0.001,0.003-0.003,0.004-0.004c0.004-0.006,0.009-0.011,0.014-0.017
		c0.002-0.002,0.003-0.004,0.005-0.006c0.003-0.003,0.006-0.007,0.009-0.011c0.003-0.002,0.005-0.004,0.007-0.007
		s0.005-0.006,0.008-0.009c0.002-0.003,0.004-0.005,0.006-0.008c0.004-0.005,0.009-0.01,0.013-0.014
		c0.002-0.003,0.004-0.005,0.006-0.008c0.004-0.004,0.006-0.006,0.009-0.01c0.002-0.003,0.005-0.006,0.007-0.008
		c0.002-0.003,0.005-0.007,0.008-0.01c0.002-0.002,0.004-0.004,0.006-0.006c0.003-0.004,0.006-0.008,0.01-0.012
		c0.003-0.004,0.003-0.004,0.006-0.008c0.004-0.004,0.008-0.009,0.012-0.014c0.002-0.002,0.005-0.005,0.007-0.007
		c0.002-0.003,0.005-0.006,0.007-0.009c0.002-0.002,0.005-0.006,0.007-0.009c0.003-0.002,0.005-0.005,0.008-0.008
		c0.003-0.004,0.004-0.005,0.007-0.009c0.001-0.001,0.002-0.002,0.003-0.003c0.006-0.008,0.012-0.014,0.018-0.021
		c0.002-0.002,0.004-0.004,0.006-0.006c0.003-0.004,0.004-0.005,0.007-0.009c0.003-0.003,0.005-0.006,0.008-0.009
		s0.004-0.004,0.007-0.008c0.002-0.003,0.004-0.005,0.007-0.008c0.004-0.005,0.01-0.012,0.014-0.017
		c0.002-0.002,0.004-0.004,0.006-0.006c0.003-0.004,0.004-0.006,0.007-0.009c0.003-0.004,0.005-0.006,0.008-0.009
		c0.002-0.002,0.004-0.006,0.006-0.008c0.003-0.003,0.005-0.006,0.008-0.009s0.004-0.005,0.007-0.008
		c0.003-0.004,0.006-0.008,0.009-0.012c0.004-0.003,0.007-0.007,0.01-0.011c0.003-0.003,0.005-0.006,0.008-0.009
		c0.002-0.003,0.006-0.007,0.008-0.009c0.002-0.003,0.004-0.005,0.006-0.008c0.003-0.003,0.005-0.005,0.008-0.009
		c0.002-0.002,0.003-0.004,0.005-0.007c0.007-0.007,0.011-0.012,0.017-0.019c0.001-0.002,0.003-0.004,0.004-0.006
		c0.003-0.003,0.006-0.006,0.009-0.01c0.002-0.002,0.004-0.004,0.005-0.006c0.002-0.002,0.007-0.008,0.009-0.01
		c0.002-0.003,0.003-0.004,0.005-0.006c0.003-0.004,0.006-0.007,0.009-0.011c0.001-0.001,0.002-0.002,0.003-0.003
		c0.006-0.008,0.013-0.016,0.019-0.022c0.001-0.001,0.002-0.003,0.003-0.004c0.004-0.004,0.007-0.008,0.01-0.011
		c0.001-0.002,0.003-0.004,0.004-0.006c0.003-0.003,0.007-0.008,0.01-0.012c0.001,0,0.001-0.001,0.002-0.001
		c0.011-0.014,0.021-0.025,0.032-0.039c0.001-0.002,0.003-0.003,0.004-0.005c0.004-0.005,0.006-0.007,0.01-0.011
		c0.001-0.002,0.002-0.003,0.003-0.004c0.003-0.004,0.007-0.009,0.01-0.013h0.001c0.007-0.009,0.015-0.018,0.021-0.026
		c0.001-0.001,0.002-0.002,0.002-0.003c0.003-0.003,0.007-0.008,0.01-0.012c0.002-0.001,0.003-0.002,0.004-0.004
		c0.003-0.004,0.007-0.008,0.01-0.012c0-0.001,0.002-0.002,0.002-0.003c0.011-0.012,0.022-0.026,0.032-0.038
		c0.001-0.001,0.002-0.003,0.003-0.004c0.004-0.005,0.006-0.007,0.01-0.012c0.001-0.002,0.003-0.003,0.004-0.005
		c0.011-0.013,0.022-0.026,0.033-0.04l0,0c0.003-0.004,0.008-0.009,0.011-0.013c0.001-0.001,0.002-0.002,0.003-0.004
		c0.003-0.004,0.007-0.009,0.011-0.012c0-0.001,0-0.001,0-0.001c0.011-0.014,0.022-0.027,0.033-0.04
		c0.001-0.002,0.003-0.003,0.004-0.005c0.004-0.005,0.006-0.007,0.01-0.012c0.001-0.001,0.001-0.002,0.002-0.003
		c0.012-0.015,0.022-0.026,0.034-0.041l0,0c0.004-0.005,0.008-0.01,0.012-0.015l0.001-0.001c3.253-3.956,5.909-8.42,7.833-13.256
		c0,0,0,0,0-0.001c0.01-0.023,0.019-0.046,0.028-0.069v-0.001c0.01-0.023,0.018-0.046,0.027-0.069c0,0,0.001-0.001,0.001-0.002
		c0.002-0.006,0.004-0.011,0.007-0.017v-0.001c0.021-0.054,0.041-0.105,0.062-0.159c0,0,0,0,0-0.001
		c0.01-0.023,0.018-0.045,0.027-0.068c0-0.001,0-0.002,0.001-0.003c0.002-0.006,0.004-0.011,0.006-0.017c0,0,0-0.001,0.001-0.001
		c0.006-0.017,0.013-0.033,0.019-0.05c0.001-0.001,0.001-0.002,0.002-0.004c0.002-0.006,0.003-0.009,0.006-0.015
		c0-0.002,0.001-0.003,0.001-0.004c0.003-0.006,0.004-0.01,0.006-0.016h0.001c0.006-0.017,0.013-0.035,0.02-0.051
		c0-0.002,0.001-0.003,0.001-0.005c0.003-0.006,0.004-0.009,0.006-0.015c0.001-0.002,0.001-0.003,0.002-0.005
		c0.006-0.016,0.012-0.032,0.019-0.048c0-0.001,0.001-0.002,0.001-0.003c0.002-0.004,0.004-0.01,0.006-0.015
		c0-0.002,0.001-0.003,0.002-0.005c0.008-0.021,0.017-0.044,0.024-0.065c0.001-0.002,0.002-0.004,0.003-0.006
		c0.001-0.005,0.003-0.009,0.005-0.014c0-0.002,0.001-0.004,0.002-0.006c0.006-0.015,0.012-0.03,0.017-0.045
		c0.001-0.002,0.002-0.004,0.003-0.006c0.001-0.005,0.003-0.01,0.005-0.014c0.001-0.003,0.001-0.004,0.002-0.006
		c0.002-0.005,0.004-0.009,0.006-0.014c0-0.002,0.001-0.005,0.002-0.007c0.003-0.009,0.006-0.015,0.009-0.023
		c0.001-0.003,0.002-0.005,0.003-0.008c0.002-0.004,0.003-0.008,0.005-0.013c0.001-0.002,0.002-0.004,0.003-0.006
		c0.001-0.005,0.003-0.01,0.005-0.014c0.001-0.003,0.001-0.004,0.002-0.007c0.006-0.015,0.011-0.029,0.017-0.044
		c0.001-0.002,0.002-0.005,0.003-0.007c0.002-0.005,0.003-0.008,0.005-0.013c0.001-0.002,0.002-0.005,0.003-0.008
		c0.001-0.004,0.003-0.009,0.005-0.013c0-0.002,0.001-0.003,0.002-0.005c0.003-0.009,0.006-0.018,0.009-0.026
		c0.001-0.002,0.002-0.004,0.003-0.006c0.001-0.005,0.003-0.009,0.005-0.013c0.001-0.003,0.002-0.005,0.002-0.008
		c0.002-0.004,0.004-0.009,0.006-0.013c0-0.002,0.001-0.004,0.002-0.006c0.005-0.015,0.011-0.029,0.017-0.045
		c0-0.002,0.002-0.005,0.002-0.007c0.002-0.005,0.003-0.008,0.005-0.013c0.001-0.003,0.002-0.006,0.003-0.009
		c0.002-0.005,0.003-0.006,0.004-0.011c0.002-0.004,0.003-0.008,0.005-0.012c0.002-0.006,0.004-0.011,0.006-0.017
		c0.002-0.004,0.003-0.007,0.004-0.011c0.002-0.005,0.003-0.006,0.004-0.011c0.002-0.003,0.003-0.007,0.004-0.01
		s0.003-0.008,0.004-0.011c0.001-0.004,0.003-0.008,0.004-0.012c0.002-0.003,0.003-0.006,0.004-0.009
		c0.002-0.006,0.004-0.013,0.007-0.019c0.001-0.003,0.002-0.007,0.003-0.01c0.002-0.004,0.003-0.008,0.005-0.012
		c0.001-0.003,0.002-0.006,0.003-0.009c0.002-0.004,0.003-0.009,0.005-0.013c0.001-0.002,0.002-0.007,0.003-0.009
		c0.002-0.005,0.004-0.01,0.006-0.016c0.001-0.003,0.002-0.006,0.003-0.009c0.002-0.006,0.004-0.01,0.006-0.016
		c0.001-0.003,0.002-0.006,0.003-0.009c0.002-0.005,0.004-0.009,0.005-0.013c0.001-0.003,0.002-0.006,0.003-0.009
		c0.002-0.004,0.003-0.008,0.005-0.012c0.001-0.003,0.002-0.006,0.003-0.009c0.003-0.007,0.005-0.013,0.007-0.02
		c0.001-0.003,0.003-0.006,0.004-0.009c0.001-0.004,0.003-0.008,0.004-0.012c0.001-0.003,0.003-0.008,0.004-0.011
		s0.002-0.007,0.004-0.01c0.001-0.005,0.002-0.006,0.003-0.011c0.002-0.004,0.003-0.008,0.005-0.012
		c0.002-0.006,0.003-0.009,0.005-0.015c0.002-0.005,0.004-0.009,0.005-0.014c0.002-0.004,0.002-0.005,0.004-0.009
		c0.001-0.004,0.002-0.008,0.004-0.012c0.001-0.003,0.002-0.007,0.004-0.01c0.001-0.004,0.002-0.008,0.004-0.012
		c0.001-0.003,0.002-0.006,0.003-0.009c0.003-0.007,0.005-0.014,0.007-0.021c0.002-0.003,0.001-0.002,0.003-0.005
		c0.001-0.006,0.003-0.01,0.005-0.016c0.001-0.003,0.002-0.005,0.003-0.008c0.002-0.005,0.003-0.008,0.005-0.013
		c0.001-0.004,0.001-0.005,0.003-0.01s0.004-0.01,0.006-0.016c0.001-0.003,0.001-0.004,0.002-0.007
		c0.003-0.006,0.005-0.012,0.007-0.018c0.001-0.003,0.002-0.005,0.003-0.008c0.001-0.005,0.003-0.009,0.005-0.014
		c0.001-0.003,0.002-0.005,0.003-0.008c0.001-0.005,0.003-0.01,0.005-0.015c0.001-0.003,0.001-0.003,0.002-0.006
		c0.003-0.007,0.005-0.014,0.008-0.021c0.001-0.003,0.001-0.004,0.002-0.007c0.002-0.005,0.004-0.01,0.005-0.015
		c0.001-0.003,0.002-0.005,0.003-0.008c0.002-0.005,0.004-0.01,0.005-0.014c0.001-0.002,0.002-0.006,0.003-0.007
		c0.002-0.006,0.004-0.012,0.006-0.017c0.001-0.003,0.002-0.006,0.003-0.009c0.002-0.006,0.004-0.012,0.006-0.018
		c0.001-0.001,0.002-0.004,0.002-0.006c0.002-0.005,0.004-0.011,0.006-0.016c0.001-0.002,0.002-0.004,0.002-0.006
		c0.002-0.006,0.005-0.013,0.007-0.018c0-0.002,0-0.003,0.001-0.004c0.002-0.007,0.005-0.015,0.008-0.021
		c0-0.002,0.001-0.003,0.001-0.005c0.002-0.006,0.004-0.011,0.006-0.017c0.001-0.002,0.002-0.004,0.002-0.006
		c0.002-0.006,0.004-0.011,0.006-0.017c0.001-0.002,0.002-0.004,0.002-0.005c0.005-0.015,0.01-0.028,0.016-0.043
		c0-0.002,0.001-0.005,0.002-0.006c0.002-0.006,0.004-0.012,0.006-0.017c0-0.002,0.001-0.004,0.001-0.005
		c0.003-0.007,0.005-0.013,0.007-0.02c0.001-0.001,0.001-0.001,0.001-0.002c0.003-0.008,0.005-0.015,0.008-0.022
		c0-0.002,0-0.001,0.001-0.003c0.002-0.006,0.004-0.012,0.007-0.019c0-0.001,0.001-0.004,0.002-0.006
		c0.002-0.006,0.004-0.011,0.006-0.017c0-0.002,0.001-0.003,0.001-0.005c0.005-0.014,0.011-0.029,0.016-0.044
		c0-0.002,0-0.001,0.001-0.003c0.002-0.006,0.004-0.012,0.006-0.019c0.001-0.001,0.002-0.003,0.002-0.005
		c0.008-0.022,0.016-0.044,0.023-0.066c0-0.002,0-0.001,0-0.003c0.003-0.007,0.005-0.014,0.008-0.021v-0.002
		c0.006-0.016,0.011-0.03,0.016-0.046h0.001c0.002-0.008,0.005-0.015,0.007-0.022l0.001-0.001c0.008-0.023,0.016-0.046,0.023-0.069
		v-0.001c0.011-0.031,0.021-0.062,0.031-0.093l0,0c0.593-1.76,1.09-3.562,1.486-5.403l0.005-0.022
		c0.104-0.481,0.199-0.962,0.289-1.448L196.264,158.471L196.264,158.471z M200,109.146h-3v1.5v25v1.5h3V109.146L200,109.146z
		 M200,59.147h-3v1.5v25v1.5h3V59.147L200,59.147z M184.222,13.546l-2.103,2.109l1.062,1.059c5.577,5.56,9.695,12.467,11.907,19.975
		l0.425,1.438l2.855-0.841c-0.124-0.475-0.256-0.948-0.395-1.417l-0.008-0.028c-0.609-2.067-1.348-4.078-2.208-6.024v0
		c-0.003-0.008-0.007-0.015-0.01-0.022v0c-0.01-0.022-0.02-0.044-0.029-0.066l-0.001-0.001c-0.013-0.03-0.026-0.059-0.039-0.088
		l-0.001-0.001c-0.01-0.022-0.02-0.044-0.029-0.067l0,0c-0.01-0.022-0.021-0.044-0.03-0.066c0-0.001,0,0,0-0.001
		c-0.004-0.007-0.007-0.014-0.01-0.021l-0.001-0.001c-0.01-0.022-0.02-0.044-0.029-0.066v0c-0.007-0.015-0.014-0.029-0.021-0.044v0
		c-0.004-0.007-0.007-0.014-0.01-0.021l-0.001-0.002c-0.003-0.006-0.006-0.013-0.009-0.02l-0.001-0.002
		c-0.007-0.014-0.014-0.028-0.02-0.043c-0.001-0.001-0.001-0.001-0.002-0.003c-0.003-0.006-0.005-0.012-0.008-0.019
		c-0.001-0.001-0.001-0.002-0.002-0.003c-0.003-0.007-0.006-0.014-0.009-0.021l-0.001-0.001c-0.003-0.007-0.006-0.014-0.01-0.021
		l-0.001-0.003c-0.003-0.005-0.005-0.011-0.008-0.017c-0.001-0.003-0.002-0.003-0.003-0.006c-0.003-0.006-0.005-0.011-0.008-0.017
		l-0.001-0.003c-0.007-0.014-0.014-0.029-0.02-0.042c-0.001-0.001-0.001-0.002-0.002-0.003c-0.003-0.006-0.005-0.011-0.008-0.018
		c-0.001-0.001-0.002-0.003-0.002-0.004c-0.007-0.014-0.013-0.028-0.02-0.042l-0.001-0.002c-0.003-0.006-0.006-0.012-0.009-0.019
		c-0.001-0.001-0.001-0.002-0.002-0.004c-0.003-0.006-0.005-0.011-0.008-0.018c-0.001-0.001-0.001-0.002-0.002-0.003
		c-0.003-0.007-0.007-0.014-0.01-0.021c-0.001-0.001,0-0.001-0.001-0.002c-0.003-0.006-0.006-0.012-0.009-0.018
		c0-0.001-0.001-0.004-0.002-0.005c-0.003-0.006-0.005-0.011-0.008-0.017c-0.001-0.001-0.001-0.002-0.002-0.004
		c-0.003-0.007-0.006-0.014-0.01-0.021v0c-0.003-0.007-0.007-0.014-0.01-0.021c-0.001-0.001-0.001-0.002-0.002-0.003
		c-0.002-0.005-0.005-0.011-0.008-0.017c0-0.001-0.001-0.003-0.002-0.005c-0.003-0.006-0.006-0.012-0.009-0.018
		c0-0.001,0-0.001-0.001-0.002c-0.003-0.007-0.006-0.014-0.01-0.021c-0.001-0.003-0.001-0.002-0.002-0.005
		c-0.003-0.005-0.005-0.01-0.008-0.016c0-0.001-0.002-0.004-0.002-0.005c-0.003-0.005-0.005-0.01-0.008-0.015
		c0-0.001-0.002-0.005-0.003-0.006c-0.006-0.013-0.012-0.026-0.019-0.04c-0.001-0.001-0.002-0.004-0.003-0.006
		c-0.002-0.005-0.005-0.01-0.007-0.015c-0.001-0.001-0.002-0.004-0.003-0.006c-0.002-0.005-0.005-0.011-0.008-0.017
		c0-0.001-0.001-0.002-0.002-0.003c-0.003-0.007-0.006-0.014-0.009-0.021c-0.002-0.003-0.001-0.002-0.003-0.005
		c-0.002-0.004-0.005-0.01-0.007-0.015c-0.001-0.003-0.002-0.004-0.004-0.007c-0.002-0.005-0.004-0.01-0.006-0.015
		c-0.001-0.001-0.002-0.004-0.003-0.005c-0.004-0.007-0.006-0.013-0.01-0.02c-0.001-0.001-0.001-0.002-0.002-0.003
		c-0.002-0.006-0.005-0.012-0.008-0.017c-0.001-0.001-0.002-0.005-0.003-0.006c-0.002-0.004-0.004-0.009-0.006-0.013
		c-0.002-0.003-0.003-0.005-0.004-0.008c-0.003-0.006-0.005-0.011-0.008-0.017c-0.001-0.001-0.001-0.002-0.002-0.003
		c-0.003-0.007-0.006-0.013-0.009-0.02c-0.002-0.002-0.002-0.004-0.004-0.007c-0.002-0.004-0.004-0.009-0.006-0.013
		c-0.001-0.003-0.003-0.006-0.004-0.008c-0.002-0.004-0.004-0.007-0.005-0.011c-0.002-0.003-0.004-0.007-0.005-0.01
		c-0.003-0.006-0.006-0.012-0.009-0.018c-0.001-0.003-0.002-0.004-0.004-0.007c-0.002-0.004-0.003-0.008-0.005-0.012
		c-0.002-0.003-0.004-0.007-0.005-0.01c-0.002-0.003-0.004-0.007-0.005-0.011c-0.003-0.004-0.003-0.005-0.005-0.009
		c-0.002-0.004-0.004-0.008-0.006-0.012c-0.002-0.004-0.004-0.008-0.006-0.012c-0.002-0.005-0.004-0.009-0.007-0.014
		c-0.001-0.003-0.002-0.005-0.004-0.008c-0.002-0.004-0.004-0.008-0.006-0.012c-0.001-0.003-0.002-0.005-0.004-0.008
		c-0.002-0.005-0.004-0.01-0.007-0.014c-0.001-0.003-0.001-0.002-0.002-0.005c-0.003-0.006-0.006-0.013-0.01-0.019
		c-0.001-0.003-0.002-0.005-0.004-0.008c-0.002-0.004-0.004-0.008-0.006-0.012c-0.001-0.003-0.002-0.006-0.004-0.009
		c-0.002-0.003-0.004-0.008-0.005-0.011c-0.002-0.004-0.003-0.004-0.005-0.009c-0.002-0.005-0.005-0.01-0.007-0.015
		c-0.002-0.004-0.003-0.006-0.006-0.011c-0.001-0.004-0.004-0.008-0.005-0.012c-0.003-0.004-0.003-0.006-0.006-0.01
		c-0.001-0.003-0.003-0.006-0.004-0.01c-0.002-0.003-0.004-0.007-0.005-0.01c-0.002-0.003-0.004-0.007-0.005-0.011
		c-0.003-0.004-0.006-0.011-0.008-0.015c-0.002-0.003-0.004-0.008-0.006-0.011c-0.002-0.004-0.003-0.007-0.005-0.011
		c-0.002-0.003-0.003-0.005-0.004-0.008c-0.002-0.003-0.005-0.009-0.006-0.012c-0.002-0.003-0.003-0.005-0.004-0.009
		c-0.002-0.004-0.003-0.006-0.006-0.01c-0.002-0.004-0.003-0.007-0.005-0.012c-0.002-0.004-0.006-0.011-0.008-0.015
		c-0.002-0.003-0.004-0.007-0.005-0.01c-0.002-0.003-0.003-0.007-0.005-0.009c-0.001-0.003-0.003-0.007-0.005-0.01
		c-0.002-0.004-0.003-0.006-0.005-0.011c-0.002-0.003-0.003-0.005-0.004-0.008c-0.003-0.005-0.008-0.015-0.011-0.021
		c-0.001-0.002-0.002-0.005-0.003-0.007c-0.003-0.004-0.004-0.007-0.006-0.011c-0.001-0.003-0.003-0.006-0.004-0.008
		c-0.002-0.004-0.004-0.008-0.006-0.012c-0.001-0.002-0.002-0.003-0.003-0.006c-0.007-0.014-0.014-0.028-0.021-0.042
		c-0.002-0.002-0.003-0.004-0.004-0.007c-0.002-0.004-0.004-0.008-0.006-0.012c-0.001-0.002-0.002-0.004-0.003-0.006
		c-0.002-0.004-0.005-0.008-0.007-0.013c0-0.001-0.001-0.002-0.002-0.003c-0.004-0.009-0.01-0.021-0.014-0.029
		c-0.001-0.001-0.001-0.002-0.002-0.003c-0.002-0.004-0.004-0.009-0.006-0.013c-0.001-0.002-0.002-0.003-0.003-0.006
		c-0.002-0.004-0.005-0.008-0.007-0.013c-0.001-0.002-0.002-0.004-0.003-0.006c-0.007-0.014-0.015-0.03-0.021-0.044
		c-0.001-0.001-0.001-0.003-0.002-0.004c-0.003-0.006-0.004-0.008-0.007-0.014c-0.001-0.001-0.002-0.003-0.002-0.004
		c-0.008-0.015-0.016-0.031-0.023-0.047c-0.001,0-0.001-0.001-0.001-0.001c-0.002-0.004-0.005-0.01-0.008-0.015
		c0-0.001-0.001-0.003-0.002-0.004c-0.003-0.006-0.004-0.009-0.007-0.015c-0.001-0.001-0.001-0.001-0.001-0.002
		c-0.009-0.017-0.016-0.031-0.024-0.048c0,0,0-0.001-0.001-0.001c-0.003-0.006-0.005-0.01-0.008-0.016c0,0,0-0.001-0.001-0.001
		c-0.008-0.017-0.016-0.032-0.024-0.048c0,0,0-0.001,0-0.001c-0.003-0.006-0.005-0.009-0.008-0.015
		c-0.001-0.001-0.001-0.003-0.002-0.004c-0.003-0.006-0.004-0.009-0.007-0.015c-0.001-0.001-0.001-0.002-0.002-0.002
		c-0.008-0.016-0.016-0.032-0.023-0.047c-0.001-0.001-0.001-0.001-0.001-0.002c-0.003-0.006-0.006-0.01-0.008-0.016
		c-0.001,0-0.001-0.001-0.001-0.001c-0.009-0.017-0.017-0.033-0.025-0.05l0,0c-0.003-0.006-0.005-0.01-0.008-0.015
		c-0.001-0.001-0.001-0.002-0.002-0.003c-0.011-0.022-0.021-0.042-0.032-0.064c-0.001-0.001-0.001-0.001-0.001-0.002
		c-0.012-0.022-0.022-0.042-0.034-0.065c0,0,0-0.001-0.001-0.002c-0.002-0.005-0.005-0.01-0.008-0.016V27.22
		C191.887,22.083,188.391,17.461,184.222,13.546L184.222,13.546z M150,0h-26.5v3h1.5h25l0,0c4.48,0,8.911,0.629,13.17,1.869
		l1.439,0.419l0.833-2.858c-1.31-0.425-2.645-0.797-3.999-1.114c0,0-0.001,0-0.001,0c-0.02-0.004-0.036-0.009-0.056-0.013
		c0,0,0,0-0.001,0c-0.019-0.004-0.037-0.009-0.056-0.013l0,0c-0.007-0.001-0.012-0.002-0.018-0.004c-0.002,0-0.003,0-0.004-0.001
		c-0.019-0.004-0.034-0.008-0.053-0.012c-0.001,0-0.002,0-0.003,0c-0.025-0.006-0.049-0.011-0.074-0.017c0,0-0.001,0-0.001,0
		c-0.02-0.004-0.036-0.008-0.056-0.012c0,0-0.001,0-0.001,0c-0.025-0.006-0.05-0.011-0.075-0.017l0,0
		c-0.019-0.004-0.035-0.008-0.055-0.012c-0.002,0-0.003,0-0.004-0.001c-0.02-0.004-0.036-0.008-0.055-0.012l0,0
		c-0.007-0.001-0.013-0.003-0.019-0.004c-0.001,0-0.001,0-0.001,0c-0.02-0.004-0.037-0.008-0.056-0.012c-0.001,0-0.002,0-0.002,0
		c-0.02-0.004-0.036-0.008-0.055-0.012c-0.001,0-0.001,0-0.002,0c-0.025-0.006-0.049-0.011-0.074-0.017c-0.001,0-0.002,0-0.002,0
		c-0.02-0.004-0.035-0.008-0.055-0.012c-0.001,0-0.002,0-0.002,0c-0.025-0.005-0.05-0.011-0.075-0.016l0,0
		c-0.02-0.004-0.036-0.008-0.055-0.012c-0.002,0-0.003-0.001-0.004-0.001c-0.02-0.004-0.035-0.008-0.055-0.012c0,0-0.001,0-0.001,0
		c-0.007-0.001-0.012-0.002-0.018-0.003c-0.001,0-0.002,0-0.004-0.001c-0.019-0.004-0.033-0.007-0.053-0.011
		c-0.001,0-0.002,0-0.004,0c-0.006-0.001-0.011-0.002-0.017-0.004h-0.001c-0.012-0.002-0.023-0.005-0.034-0.007
		c-0.002,0-0.003,0-0.005-0.001c-0.006-0.001-0.011-0.002-0.017-0.003c-0.001,0-0.001,0-0.002,0
		c-0.018-0.003-0.035-0.007-0.053-0.011c-0.002,0-0.005-0.001-0.007-0.001c-0.016-0.003-0.034-0.007-0.05-0.011
		c-0.002,0-0.004,0-0.005-0.001c-0.007-0.001-0.011-0.002-0.017-0.003c-0.002,0-0.004,0-0.005-0.001
		c-0.01-0.002-0.019-0.004-0.028-0.006c-0.002,0-0.005-0.001-0.008-0.001c-0.005-0.001-0.01-0.002-0.015-0.003
		c-0.002,0-0.005-0.001-0.007-0.001c-0.005-0.001-0.01-0.002-0.015-0.003c-0.001,0-0.001,0-0.001,0
		c-0.011-0.002-0.021-0.004-0.032-0.006c-0.003-0.001-0.006-0.001-0.01-0.002c-0.004-0.001-0.008-0.002-0.013-0.003
		c-0.003,0-0.006-0.001-0.009-0.001c-0.009-0.002-0.015-0.003-0.024-0.005c-0.003,0-0.006-0.001-0.009-0.001
		c-0.005-0.001-0.009-0.002-0.014-0.003c-0.003,0-0.006-0.001-0.009-0.002c-0.011-0.002-0.021-0.004-0.032-0.006c0,0,0,0-0.001,0
		c-0.005-0.001-0.01-0.002-0.015-0.003c-0.002,0-0.005-0.001-0.008-0.002c-0.005-0.001-0.009-0.001-0.014-0.002
		c-0.003-0.001-0.006-0.001-0.009-0.002c-0.008-0.001-0.018-0.003-0.025-0.005c-0.002,0-0.005-0.001-0.008-0.002
		c-0.006-0.001-0.009-0.001-0.015-0.003c-0.002,0-0.005-0.001-0.007-0.001c-0.017-0.003-0.033-0.006-0.049-0.009
		c-0.003-0.001-0.005-0.001-0.008-0.002c-0.005-0.001-0.01-0.002-0.015-0.003c-0.001,0-0.002,0-0.004,0
		c-0.009-0.002-0.021-0.004-0.03-0.006c-0.002,0-0.005-0.001-0.007-0.001c-0.006-0.001-0.009-0.002-0.015-0.003
		c-0.002,0-0.005-0.001-0.007-0.001c-0.01-0.002-0.02-0.004-0.029-0.006c-0.002,0-0.004,0-0.005-0.001
		c-0.005-0.001-0.011-0.002-0.016-0.003c-0.002,0-0.004-0.001-0.007-0.001c-0.005-0.001-0.011-0.002-0.016-0.003
		c0,0-0.001,0-0.002,0c-0.011-0.002-0.02-0.003-0.03-0.006c-0.003,0-0.006-0.001-0.009-0.001c-0.005-0.001-0.01-0.002-0.015-0.003
		c-0.002,0-0.005-0.001-0.008-0.001c-0.009-0.002-0.018-0.003-0.027-0.005c-0.002,0-0.004-0.001-0.005-0.001
		c-0.005-0.001-0.011-0.002-0.016-0.003c-0.003,0-0.006-0.001-0.009-0.002c-0.004,0-0.009-0.001-0.014-0.002
		c-0.001,0-0.003,0-0.004-0.001c-0.01-0.002-0.02-0.003-0.029-0.005c-0.003,0-0.006-0.001-0.009-0.002
		c-0.003,0-0.01-0.002-0.013-0.002c-0.004,0-0.008-0.001-0.011-0.002c-0.007-0.001-0.016-0.003-0.022-0.004
		c-0.003,0-0.007-0.001-0.01-0.002c-0.005-0.001-0.009-0.001-0.014-0.002c-0.003,0-0.006-0.001-0.009-0.001
		c-0.017-0.003-0.031-0.006-0.048-0.009c-0.002,0-0.005-0.001-0.008-0.001c-0.005-0.001-0.011-0.002-0.015-0.003
		c-0.002,0-0.004,0-0.006-0.001c-0.01-0.002-0.018-0.003-0.027-0.005c-0.003,0-0.006-0.001-0.008-0.002
		c-0.005,0-0.01-0.001-0.015-0.002c-0.003,0-0.006-0.001-0.009-0.001c-0.008-0.002-0.017-0.003-0.024-0.005
		c-0.003,0-0.006-0.001-0.009-0.001c-0.005-0.001-0.009-0.002-0.014-0.002c-0.003-0.001-0.006-0.001-0.01-0.002
		c-0.004-0.001-0.008-0.001-0.013-0.002c-0.004,0-0.008-0.001-0.011-0.002c-0.007-0.001-0.016-0.003-0.021-0.004
		c-0.004-0.001-0.008-0.001-0.011-0.002c-0.003-0.001-0.011-0.002-0.014-0.002s-0.006-0.001-0.008-0.002
		c-0.009-0.001-0.018-0.003-0.025-0.004c-0.003,0-0.006-0.001-0.009-0.001c-0.005-0.001-0.008-0.001-0.013-0.002
		c-0.004,0-0.008-0.001-0.011-0.002c-0.005-0.001-0.009-0.001-0.014-0.002c-0.003,0-0.006-0.001-0.009-0.002
		c-0.008-0.001-0.016-0.003-0.024-0.004c-0.002-0.001-0.006-0.001-0.009-0.002s-0.01-0.002-0.014-0.002
		c-0.003,0-0.006-0.001-0.009-0.001c-0.01-0.002-0.017-0.003-0.025-0.005c-0.003,0-0.005-0.001-0.008-0.001
		c-0.005,0-0.01-0.001-0.015-0.002c-0.003,0-0.005-0.001-0.008-0.001c-0.005-0.001-0.01-0.002-0.015-0.002c0,0-0.001,0-0.002,0
		c-0.011-0.002-0.021-0.004-0.031-0.006c-0.003,0-0.006-0.001-0.009-0.001c-0.005-0.001-0.009-0.001-0.014-0.002
		c-0.004,0-0.008-0.001-0.012-0.002c-0.006-0.001-0.013-0.002-0.019-0.003c-0.004-0.001-0.008-0.001-0.013-0.002
		c-0.005-0.001-0.008-0.001-0.013-0.002c-0.003,0-0.007-0.001-0.011-0.002c-0.006-0.001-0.012-0.002-0.018-0.003
		c-0.005,0-0.01-0.001-0.015-0.002s-0.008-0.001-0.013-0.002c-0.004-0.001-0.007-0.001-0.011-0.002
		c-0.004-0.001-0.009-0.001-0.014-0.002c-0.002,0-0.005-0.001-0.008-0.001c-0.01-0.001-0.016-0.003-0.024-0.004
		c-0.003,0-0.007-0.001-0.01-0.001c-0.005-0.001-0.009-0.002-0.014-0.002c-0.003,0-0.006-0.001-0.009-0.001
		c-0.01-0.002-0.017-0.003-0.026-0.005c-0.002,0-0.005-0.001-0.007-0.001c-0.005-0.001-0.009-0.001-0.014-0.002
		c-0.003,0-0.007-0.001-0.01-0.002c-0.005,0-0.009-0.001-0.014-0.002c-0.002,0-0.005,0-0.007-0.001
		c-0.01-0.001-0.018-0.003-0.027-0.004c-0.003,0-0.005-0.001-0.008-0.001c-0.003-0.001-0.011-0.002-0.014-0.002
		s-0.007-0.001-0.011-0.002c-0.006-0.001-0.017-0.003-0.023-0.004c-0.003,0-0.006-0.001-0.009-0.001
		c-0.005-0.001-0.01-0.002-0.014-0.002c-0.003,0-0.006-0.001-0.009-0.001c-0.005-0.001-0.01-0.001-0.015-0.002
		c-0.002,0-0.004-0.001-0.006-0.001c-0.01-0.002-0.018-0.003-0.027-0.005c-0.003,0-0.006-0.001-0.008-0.001
		c-0.005,0-0.011-0.001-0.015-0.002c-0.004,0-0.007-0.001-0.01-0.001c-0.008-0.001-0.014-0.002-0.022-0.004
		c-0.003,0-0.007-0.001-0.01-0.001c-0.005-0.001-0.01-0.002-0.015-0.002c-0.003,0-0.006-0.001-0.009-0.001
		c-0.005-0.001-0.009-0.001-0.014-0.002s-0.01-0.001-0.015-0.002c-0.007-0.001-0.012-0.002-0.019-0.003
		c-0.003,0-0.006-0.001-0.01-0.002c-0.005,0-0.009-0.001-0.014-0.002c-0.003,0-0.006-0.001-0.009-0.001
		c-0.008-0.001-0.015-0.002-0.022-0.004c-0.004,0-0.008-0.001-0.012-0.002s-0.009-0.001-0.012-0.002
		c-0.004,0-0.008-0.001-0.012-0.002c-0.005-0.001-0.008-0.001-0.013-0.002c-0.007-0.001-0.013-0.002-0.02-0.003
		c-0.005-0.001-0.008-0.001-0.013-0.002c-0.004,0-0.007-0.001-0.011-0.002c-0.005,0-0.009-0.001-0.014-0.002
		c-0.003,0-0.007-0.001-0.01-0.002c-0.007-0.001-0.016-0.002-0.022-0.003c-0.003,0-0.007-0.001-0.01-0.001
		c-0.005-0.001-0.009-0.001-0.014-0.002c-0.003,0-0.007-0.001-0.01-0.001c-0.017-0.003-0.031-0.005-0.048-0.008
		c-0.003,0-0.006-0.001-0.008-0.001c-0.005,0-0.01-0.001-0.015-0.002c-0.003,0-0.006-0.001-0.009-0.001
		c-0.009-0.001-0.016-0.002-0.023-0.004c-0.004,0-0.008-0.001-0.011-0.001s-0.01-0.002-0.013-0.002
		c-0.004,0-0.008-0.001-0.011-0.001c-0.005-0.001-0.014-0.002-0.019-0.003c-0.005-0.001-0.01-0.001-0.014-0.002
		c-0.005,0-0.009-0.001-0.014-0.002c-0.003,0-0.007-0.001-0.01-0.001c-0.005-0.001-0.009-0.001-0.014-0.002
		c-0.005,0-0.01-0.001-0.015-0.002c-0.007-0.001-0.012-0.002-0.019-0.003c-0.003,0-0.006-0.001-0.009-0.001
		c-0.005-0.001-0.01-0.001-0.015-0.002c-0.003,0-0.006-0.001-0.01-0.001c-0.008-0.001-0.013-0.002-0.021-0.003
		c-0.004,0-0.009-0.001-0.013-0.002c-0.005,0-0.008-0.001-0.013-0.002c-0.004,0-0.007-0.001-0.011-0.001
		c-0.005-0.001-0.008-0.001-0.013-0.002c-0.006-0.001-0.011-0.002-0.017-0.003c-0.007-0.001-0.009-0.001-0.016-0.002
		c-0.004-0.001-0.008-0.001-0.012-0.002c-0.003,0-0.009-0.001-0.012-0.002c-0.005,0-0.01-0.001-0.014-0.002
		c-0.005-0.001-0.011-0.002-0.016-0.002c-0.005-0.001-0.011-0.001-0.016-0.002c-0.003,0-0.008-0.001-0.011-0.001
		c-0.005-0.001-0.009-0.001-0.014-0.002c-0.003,0-0.008-0.001-0.011-0.001c-0.007-0.001-0.014-0.002-0.021-0.003
		c-0.004,0-0.008-0.001-0.012-0.001s-0.008-0.001-0.013-0.002c-0.003,0-0.008-0.001-0.011-0.001
		c-0.005-0.001-0.01-0.001-0.015-0.002c-0.007-0.001-0.011-0.001-0.018-0.002c-0.004-0.001-0.009-0.001-0.013-0.002
		s-0.009-0.001-0.012-0.002c-0.005,0-0.009-0.001-0.014-0.002c-0.004,0-0.007-0.001-0.01-0.001
		c-0.007-0.001-0.015-0.002-0.021-0.003c-0.005,0-0.006,0-0.011-0.001c-0.005,0-0.009-0.001-0.014-0.002s-0.006-0.001-0.011-0.001
		c-0.006-0.001-0.011-0.001-0.016-0.002c-0.005,0-0.012-0.002-0.017-0.002c-0.004,0-0.008-0.001-0.013-0.002
		c-0.003,0-0.008-0.001-0.012-0.001c-0.004-0.001-0.009-0.001-0.014-0.002c-0.003,0-0.007-0.001-0.011-0.002
		c-0.007-0.001-0.014-0.002-0.021-0.003c-0.005,0-0.006-0.001-0.011-0.001c-0.004,0-0.009-0.001-0.013-0.002
		c-0.005,0-0.007-0.001-0.012-0.001c-0.005-0.001-0.011-0.002-0.016-0.002c-0.005-0.001-0.012-0.002-0.017-0.002
		c-0.004,0-0.008-0.001-0.012-0.002c-0.004,0-0.01-0.001-0.014-0.001c-0.003,0-0.007-0.001-0.011-0.002
		c-0.006,0-0.014-0.002-0.02-0.003c-0.005,0-0.009-0.001-0.013-0.001c-0.005-0.001-0.008-0.001-0.013-0.002
		c-0.004,0-0.008-0.001-0.012-0.001c-0.005-0.001-0.007-0.001-0.012-0.002c-0.007-0.001-0.014-0.002-0.021-0.003
		c-0.004,0-0.009-0.001-0.012-0.001c-0.004,0-0.008-0.001-0.012-0.002c-0.004,0-0.01-0.001-0.013-0.001
		c-0.004,0-0.008-0.001-0.012-0.002c-0.007-0.001-0.014-0.001-0.02-0.002c-0.005-0.001-0.009-0.001-0.014-0.002
		c-0.003,0-0.008-0.001-0.011-0.001c-0.005-0.001-0.009-0.001-0.014-0.002c-0.003,0-0.007-0.001-0.011-0.001
		c-0.007-0.001-0.014-0.002-0.021-0.003c-0.004,0-0.009-0.001-0.012-0.002c-0.004,0-0.008-0.001-0.012-0.001
		c-0.005,0-0.008-0.001-0.013-0.002c-0.005,0-0.01-0.001-0.014-0.001c-0.007-0.001-0.01-0.001-0.017-0.002
		c-0.005-0.001-0.01-0.001-0.015-0.002c-0.003,0-0.008-0.001-0.011-0.001c-0.005-0.001-0.009-0.001-0.014-0.002
		c-0.003,0-0.008-0.001-0.011-0.001c-0.007-0.001-0.014-0.002-0.021-0.003c-0.005,0-0.006-0.001-0.011-0.001
		s-0.009-0.001-0.013-0.002c-0.005,0-0.007-0.001-0.012-0.001s-0.009-0.001-0.014-0.002c-0.007-0.001-0.012-0.001-0.019-0.002
		c-0.004,0-0.009-0.001-0.013-0.001c-0.003,0-0.009-0.001-0.012-0.002c-0.004,0-0.008-0.001-0.012-0.001
		c-0.005,0-0.013-0.001-0.018-0.002c-0.005,0-0.011-0.001-0.016-0.002s-0.006-0.001-0.011-0.001c-0.004,0-0.009-0.001-0.014-0.002
		c-0.005,0-0.006,0-0.011-0.001c-0.007-0.001-0.014-0.001-0.02-0.002c-0.004,0-0.009-0.001-0.012-0.001
		c-0.005-0.001-0.01-0.001-0.014-0.002s-0.008-0.001-0.012-0.001c-0.005,0-0.01-0.001-0.015-0.002s-0.008-0.001-0.013-0.002
		c-0.006,0-0.012-0.001-0.018-0.002c-0.005-0.001-0.007-0.001-0.012-0.001s-0.009-0.001-0.013-0.002c-0.005,0-0.006,0-0.011-0.001
		c-0.007-0.001-0.015-0.001-0.021-0.002c-0.004,0-0.008-0.001-0.011-0.001c-0.005,0-0.01-0.001-0.014-0.002
		s-0.008-0.001-0.011-0.001c-0.006,0-0.011-0.001-0.016-0.002c-0.004,0-0.01-0.001-0.013-0.001
		c-0.006-0.001-0.012-0.001-0.018-0.002c-0.003,0-0.008-0.001-0.011-0.001c-0.005,0-0.009-0.001-0.014-0.001
		c-0.004,0-0.007-0.001-0.011-0.001c-0.007-0.001-0.015-0.002-0.022-0.003c-0.003,0-0.005,0-0.008-0.001
		c-0.006,0-0.011-0.001-0.016-0.002c-0.003,0-0.007-0.001-0.011-0.001c-0.006,0-0.011-0.001-0.017-0.002
		c-0.005,0-0.009-0.001-0.014-0.001c-0.005-0.001-0.01-0.001-0.015-0.002c-0.004,0-0.009-0.001-0.012-0.001
		c-0.005,0-0.009-0.001-0.014-0.002c-0.003,0-0.007-0.001-0.011-0.001c-0.007-0.001-0.014-0.002-0.021-0.003
		c-0.003,0-0.006-0.001-0.01-0.001c-0.005-0.001-0.01-0.001-0.015-0.002c-0.004,0-0.007-0.001-0.01-0.001
		c-0.007,0-0.013-0.001-0.019-0.002c-0.005-0.001-0.008-0.001-0.013-0.002c-0.005,0-0.011-0.001-0.016-0.001
		c-0.003,0-0.007-0.001-0.01-0.001c-0.005,0-0.01-0.001-0.016-0.002c-0.003,0-0.006,0-0.009-0.001
		c-0.008-0.001-0.015-0.002-0.022-0.003c-0.003,0-0.006,0-0.01-0.001c-0.005,0-0.01-0.001-0.015-0.002c-0.003,0-0.007,0-0.01-0.001
		c-0.008-0.001-0.015-0.002-0.022-0.003c-0.003,0-0.005,0-0.008-0.001c-0.006,0-0.012-0.001-0.017-0.002
		c-0.003,0-0.006,0-0.01-0.001c-0.006-0.001-0.012-0.001-0.019-0.002c-0.001,0-0.004,0-0.005,0
		c-0.008-0.001-0.016-0.002-0.023-0.002c-0.003,0-0.007-0.001-0.01-0.001c-0.005,0-0.01-0.001-0.015-0.001
		c-0.004,0-0.007-0.001-0.01-0.001c-0.008-0.001-0.015-0.001-0.022-0.002c-0.003,0-0.005,0-0.008-0.001
		c-0.006,0-0.011-0.001-0.017-0.002c-0.003,0-0.007-0.001-0.01-0.001c-0.006-0.001-0.011-0.001-0.017-0.002
		c-0.005,0-0.007-0.001-0.012-0.001c-0.007-0.001-0.013-0.001-0.019-0.002c-0.004,0-0.006,0-0.009-0.001
		c-0.006,0-0.012-0.001-0.017-0.002c-0.004,0-0.005,0-0.009-0.001c-0.008,0-0.016-0.001-0.023-0.002c-0.003,0-0.003,0-0.007-0.001
		c-0.005,0-0.012-0.001-0.018-0.002c-0.003,0-0.006,0-0.009-0.001c-0.008-0.001-0.015-0.001-0.022-0.002c-0.002,0-0.002,0-0.004,0
		c-0.007-0.001-0.014-0.001-0.021-0.002c-0.003,0-0.005,0-0.008-0.001c-0.006,0-0.012-0.001-0.018-0.002
		c-0.004,0-0.005,0-0.008-0.001c-0.008-0.001-0.015-0.001-0.022-0.002c-0.004,0-0.007,0-0.01-0.001
		c-0.005,0-0.011-0.001-0.016-0.002c-0.003,0-0.006,0-0.009-0.001c-0.007,0-0.014-0.001-0.021-0.002
		c-0.002,0-0.008-0.001-0.01-0.001c-0.006,0-0.012-0.001-0.018-0.001c-0.003,0-0.006-0.001-0.009-0.001
		c-0.006,0-0.011-0.001-0.017-0.001c-0.003,0-0.005,0-0.009-0.001c-0.007-0.001-0.015-0.002-0.022-0.002
		c-0.003,0-0.006,0-0.009-0.001c-0.005,0-0.011-0.001-0.016-0.002c-0.002,0-0.008,0-0.01-0.001
		c-0.008-0.001-0.015-0.001-0.022-0.002c-0.002,0-0.005,0-0.007,0c-0.006-0.001-0.012-0.001-0.018-0.002
		c-0.003,0-0.007-0.001-0.01-0.001c-0.006-0.001-0.012-0.001-0.018-0.002c-0.001,0-0.005,0-0.007-0.001
		c-0.008,0-0.015-0.001-0.022-0.002c-0.003,0-0.007,0-0.01-0.001c-0.006,0-0.01-0.001-0.016-0.001c-0.003,0-0.006,0-0.009-0.001
		c-0.008-0.001-0.016-0.001-0.022-0.002c-0.004,0-0.005,0-0.008-0.001c-0.006,0-0.012-0.001-0.018-0.001
		c-0.004,0-0.006,0-0.009-0.001c-0.007-0.001-0.013-0.001-0.02-0.002c-0.002,0-0.004,0-0.006-0.001
		c-0.008,0-0.016-0.001-0.022-0.002c-0.002,0-0.007-0.001-0.009-0.001c-0.006,0-0.012-0.001-0.018-0.002
		c-0.003,0-0.004,0-0.008-0.001c-0.008,0-0.016-0.001-0.023-0.002c-0.003,0-0.002,0-0.006,0c-0.006,0-0.013-0.001-0.02-0.002
		c-0.002,0-0.005,0-0.007,0c-0.016-0.002-0.032-0.003-0.049-0.005c-0.004,0-0.005,0-0.008-0.001c-0.007,0-0.014-0.001-0.02-0.002
		c-0.002,0-0.004,0-0.006,0c-0.008-0.001-0.016-0.001-0.024-0.002c-0.001,0-0.005,0-0.006,0c-0.007-0.001-0.013-0.001-0.02-0.002
		c-0.001,0-0.005,0-0.007-0.001c-0.008,0-0.016-0.001-0.024-0.002c-0.001,0-0.003,0-0.005,0c-0.006,0-0.013-0.001-0.02-0.002
		c-0.003,0-0.005,0-0.009,0c-0.006,0-0.012-0.001-0.018-0.002c-0.003,0-0.004,0-0.007,0c-0.008-0.001-0.016-0.001-0.023-0.002
		c-0.002,0-0.006,0-0.008,0c-0.006-0.001-0.012-0.001-0.018-0.002c-0.002,0-0.006,0-0.008,0c-0.008-0.001-0.017-0.002-0.024-0.002
		c-0.002,0-0.002,0-0.004,0c-0.007,0-0.014-0.001-0.021-0.002c-0.003,0-0.004,0-0.007-0.001c-0.007,0-0.013-0.001-0.02-0.001
		c-0.002,0-0.004,0-0.006,0c-0.008-0.001-0.015-0.001-0.022-0.002c-0.002,0-0.009,0-0.01-0.001c-0.006,0-0.011-0.001-0.017-0.001
		c-0.003,0-0.005,0-0.009,0c-0.008-0.001-0.015-0.001-0.022-0.002c-0.004,0-0.004,0-0.008,0c-0.006,0-0.012-0.001-0.018-0.002
		c-0.003,0-0.005,0-0.009,0c-0.006,0-0.012-0.001-0.019-0.002c-0.002,0-0.007,0-0.009,0c-0.007-0.001-0.014-0.001-0.021-0.002
		c-0.003,0-0.006,0-0.009-0.001c-0.006,0-0.011-0.001-0.017-0.001c-0.003,0-0.006,0-0.009-0.001c-0.008,0-0.016-0.001-0.022-0.002
		c-0.004,0-0.006,0-0.009,0c-0.005,0-0.011-0.001-0.016-0.001c-0.003,0-0.007-0.001-0.011-0.001c-0.007,0-0.015-0.001-0.021-0.002
		l-0.003,0c-0.008,0-0.015-0.001-0.022-0.002c-0.004,0-0.006,0-0.01,0c-0.005,0-0.011-0.001-0.017-0.001
		c-0.003,0-0.005,0-0.008-0.001c-0.008,0-0.016-0.001-0.023-0.002c-0.003,0-0.005,0-0.008,0c-0.006,0-0.012-0.001-0.017-0.002
		c-0.004,0-0.006,0-0.009,0c-0.007,0-0.015-0.001-0.021-0.002c-0.003,0-0.006,0-0.009,0c-0.006,0-0.012-0.001-0.018-0.001
		c-0.004,0-0.007-0.001-0.01-0.001c-0.006,0-0.011-0.001-0.016-0.001c-0.003,0-0.007,0-0.01-0.001c-0.007,0-0.015-0.001-0.022-0.001
		c-0.003,0-0.006,0-0.009-0.001c-0.005,0-0.011-0.001-0.017-0.001c-0.001,0-0.007,0-0.009,0c-0.008-0.001-0.016-0.001-0.023-0.002
		c-0.001,0-0.005,0-0.006,0c-0.007,0-0.013-0.001-0.019-0.002c-0.004,0-0.006,0-0.009,0c-0.007,0-0.013-0.001-0.02-0.001
		c-0.002,0-0.004,0-0.005,0c-0.008,0-0.016-0.001-0.023-0.002c-0.002,0-0.008,0-0.01-0.001c-0.005,0-0.011,0-0.017-0.001
		c-0.001,0-0.007,0-0.008-0.001c-0.008,0-0.016-0.001-0.023-0.001c-0.003,0-0.006,0-0.009-0.001c-0.005,0-0.011-0.001-0.016-0.001
		c-0.004,0-0.007,0-0.01,0c-0.007,0-0.014-0.001-0.02-0.001c-0.002,0-0.003,0-0.005,0c-0.008,0-0.016-0.001-0.023-0.002
		c-0.002,0-0.007,0-0.009,0c-0.006,0-0.012-0.001-0.018-0.001c-0.003,0-0.005,0-0.008,0c-0.008-0.001-0.016-0.001-0.023-0.002
		c-0.004,0-0.003,0-0.006,0c-0.007,0-0.013-0.001-0.02-0.001c-0.003,0-0.005,0-0.008,0c-0.008-0.001-0.015-0.001-0.022-0.002
		c-0.001,0-0.002,0-0.004,0c-0.008,0-0.015-0.001-0.022-0.001c-0.004,0-0.005,0-0.009,0c-0.006,0-0.012-0.001-0.018-0.001
		c-0.003,0-0.004,0-0.008,0c-0.008-0.001-0.016-0.001-0.023-0.002c-0.003,0-0.003,0-0.007,0c-0.006,0-0.013-0.001-0.019-0.001
		c-0.002,0-0.006,0-0.008,0c-0.007,0-0.015-0.001-0.021-0.001c-0.003,0-0.005,0-0.009-0.001c-0.006,0-0.012,0-0.019-0.001
		c-0.003,0-0.006,0-0.009-0.001c-0.006,0-0.011,0-0.017-0.001c-0.004,0-0.006,0-0.009,0c-0.007-0.001-0.015-0.001-0.022-0.002
		c-0.003,0-0.007,0-0.01,0c-0.005,0-0.01-0.001-0.015-0.001c-0.005,0-0.006,0-0.011-0.001c-0.007,0-0.014-0.001-0.021-0.001
		c-0.003,0-0.007,0-0.01,0c-0.006,0-0.012-0.001-0.017-0.001c-0.004,0-0.007,0-0.01,0c-0.007,0-0.013-0.001-0.019-0.001
		c-0.002,0-0.004,0-0.006,0c-0.008,0-0.016-0.001-0.023-0.001c-0.002,0-0.007,0-0.009,0c-0.006,0-0.012-0.001-0.018-0.001
		c-0.002,0-0.006,0-0.008,0c-0.008,0-0.016-0.001-0.023-0.001c-0.004,0-0.004,0-0.007,0c-0.006,0-0.013-0.001-0.019-0.001
		c-0.003,0-0.006,0-0.009,0c-0.006,0-0.012-0.001-0.018-0.001c-0.002,0-0.008,0-0.01-0.001c-0.007,0-0.014-0.001-0.021-0.001
		c-0.001,0-0.007,0-0.008,0c-0.006,0-0.012,0-0.018-0.001c-0.003,0-0.005,0-0.008,0c-0.008,0-0.016-0.001-0.023-0.001
		c-0.003,0-0.005,0-0.008,0c-0.006,0-0.012-0.001-0.018-0.001c-0.003,0-0.006,0-0.009,0c-0.008,0-0.015-0.001-0.021-0.001
		c-0.002,0-0.002,0-0.004,0c-0.008,0-0.016-0.001-0.023-0.001c-0.003,0-0.005,0-0.008,0c-0.007,0-0.013-0.001-0.019-0.001
		c-0.004,0-0.004,0-0.007,0c-0.008,0-0.016-0.001-0.023-0.001c-0.004,0-0.006,0-0.01,0c-0.005,0-0.011,0-0.016-0.001
		c-0.003,0-0.006,0-0.01,0c-0.006,0-0.013-0.001-0.02-0.001c-0.004,0-0.007,0-0.01,0c-0.006,0-0.013,0-0.019-0.001
		c-0.003,0-0.006,0-0.009,0c-0.006,0-0.013-0.001-0.019-0.001c-0.003,0-0.003,0-0.007,0c-0.008,0-0.016-0.001-0.023-0.001
		c-0.002,0-0.006,0-0.008,0c-0.006,0-0.012-0.001-0.018-0.001c-0.002,0-0.007,0-0.009,0c-0.008,0-0.016-0.001-0.023-0.001
		c-0.002,0-0.003,0-0.005,0c-0.007,0-0.013,0-0.02-0.001c-0.004,0-0.006,0-0.01,0c-0.006,0-0.012-0.001-0.019-0.001
		c-0.002,0-0.004,0-0.006,0c-0.008,0-0.016-0.001-0.024-0.001c-0.001,0-0.006,0-0.007,0c-0.006,0-0.013,0-0.019-0.001
		c-0.002,0-0.006,0-0.008,0c-0.008,0-0.016-0.001-0.023-0.001c-0.002,0-0.005,0-0.007,0c-0.006,0-0.013-0.001-0.019-0.001
		c-0.004,0-0.005,0-0.009,0c-0.006,0-0.014-0.001-0.02-0.001c-0.002,0-0.004,0-0.006,0c-0.008,0-0.016-0.001-0.023-0.001
		c-0.002,0-0.007,0-0.008,0c-0.006,0-0.012,0-0.018-0.001c-0.004,0-0.006,0-0.009,0c-0.008,0-0.016,0-0.023-0.001
		c-0.003,0-0.005,0-0.008,0c-0.006,0-0.012,0-0.018-0.001c-0.003,0-0.005,0-0.008,0c-0.008,0-0.016,0-0.022-0.001
		c-0.002,0-0.001,0-0.003,0c-0.008,0-0.017-0.001-0.024-0.001c-0.002,0-0.006,0-0.008,0c-0.007,0-0.014,0-0.021-0.001h-0.004
		c-0.009,0-0.018-0.001-0.025-0.001c-0.002,0-0.004,0-0.006,0c-0.007,0-0.014,0-0.021-0.001c-0.001,0-0.005,0-0.007,0
		c-0.009,0-0.016-0.001-0.024-0.001h-0.002c-0.008,0-0.016-0.001-0.023-0.001c-0.003,0-0.004,0-0.007,0
		c-0.007,0-0.014-0.001-0.021-0.001c-0.002,0-0.004,0-0.006,0c-0.008,0-0.017,0-0.024-0.001c-0.002,0-0.004,0-0.006,0
		c-0.006,0-0.014,0-0.021-0.001c-0.002,0-0.005,0-0.007,0c-0.008,0-0.017-0.001-0.024-0.001c-0.002,0-0.001,0-0.003,0
		c-0.008,0-0.015,0-0.022-0.001c-0.003,0-0.004,0-0.008,0c-0.006,0-0.013,0-0.02-0.001c-0.001,0-0.004,0-0.006,0
		c-0.008,0-0.016-0.001-0.024-0.001c-0.001,0-0.005,0-0.007,0c-0.007,0-0.013,0-0.019-0.001c-0.002,0-0.006,0-0.008,0
		c-0.008,0-0.016-0.001-0.024-0.001c-0.002,0-0.004,0-0.005,0c-0.007,0-0.014,0-0.021-0.001c-0.003,0-0.004,0-0.007,0
		c-0.008,0-0.015-0.001-0.021-0.001c-0.002,0-0.003,0-0.005,0c-0.008,0-0.016,0-0.024-0.001c-0.002,0-0.006,0-0.007,0
		c-0.007,0-0.013-0.001-0.02-0.001c-0.002,0-0.005,0-0.007,0c-0.008,0-0.016,0-0.023-0.001c-0.004,0-0.005,0-0.008,0
		c-0.006,0-0.012,0-0.018-0.001c-0.004,0-0.006,0-0.01,0c-0.007,0-0.014,0-0.021,0c-0.001,0-0.003,0-0.004,0
		c-0.008,0-0.016,0-0.023,0c-0.004,0-0.006,0-0.009,0c-0.007,0-0.013,0-0.019-0.001c-0.004,0-0.004,0-0.007,0
		c-0.008,0-0.017,0-0.024-0.001c-0.004,0-0.003,0-0.007,0c-0.006,0-0.013,0-0.019,0c-0.002,0-0.006,0-0.008,0
		c-0.008,0-0.015,0-0.022,0c-0.002,0-0.005,0-0.007,0c-0.007,0-0.014,0-0.02,0c-0.004,0-0.007,0-0.01,0c-0.006,0-0.011,0-0.016,0
		c-0.004,0-0.007,0-0.01,0c-0.008,0-0.016,0-0.023-0.001c-0.003,0-0.005,0-0.008,0c-0.006,0-0.012,0-0.018,0
		c-0.002,0-0.007,0-0.009,0c-0.008,0-0.017,0-0.024-0.001c-0.001,0-0.002,0-0.004,0c-0.007,0-0.014,0-0.021,0
		c-0.004,0-0.005,0-0.009,0c-0.006,0-0.014,0-0.02,0c-0.002,0-0.004,0-0.005,0c-0.009,0-0.017,0-0.025,0c-0.001,0-0.005,0-0.007,0
		c-0.007,0-0.013,0-0.02,0c-0.002,0-0.005,0-0.006,0c-0.009,0-0.017,0-0.025,0c-0.001,0-0.005,0-0.006,0c-0.007,0-0.013,0-0.02,0
		c-0.003,0-0.005,0-0.008,0c-0.007,0-0.015,0-0.021-0.001c-0.002,0-0.002,0-0.004,0c-0.008,0-0.017,0-0.024,0
		c-0.002,0-0.006,0-0.008,0l0,0l0,0C151.001,0.007,150.502,0,150,0L150,0z"/>
</g>
<rect x="23.703" y="69.921" fill="none" width="154.391" height="106.232"/>
<text transform="matrix(1 0 0 1 39.4106 121.04)" font-family="'MyriadPro-Regular'" font-size="72">FPO</text>
</svg>
